<svg width="61" height="61" viewBox="0 0 61 61" fill="none" xmlns="http://www.w3.org/2000/svg">
<path d="M30.2477 5.02148C32.6102 5.02148 34.5952 6.98148 34.5952 9.31148V22.6515L46.3152 15.9365C48.3002 14.8165 51.0402 15.469 52.1752 17.5215C53.4052 19.5715 52.6502 22.1865 50.5677 23.304L38.9427 30.0215L50.5677 36.6465C52.6477 37.8565 53.4052 40.4715 52.1752 42.5215C51.0427 44.5715 48.3002 45.2265 46.3152 44.1065L34.5952 37.3915V50.7315C34.5952 53.0615 32.6102 55.0215 30.2452 55.0215C27.8827 55.0215 25.8977 53.0615 25.8977 50.7315V37.3915L14.2727 44.1065C12.1927 45.2265 9.54774 44.574 8.31774 42.5215C7.7633 41.5267 7.62108 40.3542 7.92165 39.2557C8.22221 38.1572 8.94157 37.2204 9.92524 36.6465L21.6427 30.0215L9.92524 23.304C7.84274 22.1865 7.18274 19.574 8.31774 17.5215C9.54524 15.4715 12.1927 14.8165 14.2727 15.9365L25.8977 22.6515V9.31148C25.8977 6.98148 27.8827 5.02148 30.2477 5.02148Z" fill="#423F3F"/>
</svg>
