<svg width="61" height="61" viewBox="0 0 61 61" fill="none" xmlns="http://www.w3.org/2000/svg">
<g clip-path="url(#clip0_1719_5)">
<path d="M6.51758 10.0215V13.7715C6.51758 24.1465 12.0426 33.2215 20.2676 38.2715V50.0215H57.7676V45.0215C57.7676 38.3715 44.4426 35.0215 37.7676 35.0215C37.7676 35.0215 37.3426 35.0215 37.1426 35.0215C25.2676 35.0215 15.2676 25.0215 15.2676 13.7715V10.0215H6.51758ZM37.7676 10.0215C32.2447 10.0215 27.7676 14.4986 27.7676 20.0215C27.7676 25.5443 32.2447 30.0215 37.7676 30.0215C43.2904 30.0215 47.7676 25.5443 47.7676 20.0215C47.7676 14.4986 43.2904 10.0215 37.7676 10.0215Z" fill="#464444"/>
</g>
<defs>
<clipPath id="clip0_1719_5">
<rect width="60" height="60" fill="white" transform="translate(0.267578 0.0214844)"/>
</clipPath>
</defs>
</svg>
