<svg xmlns="http://www.w3.org/2000/svg" width="60" height="60" viewBox="0 0 60 60" fill="none">
<path d="M58.9481 27.7047C58.7966 23.9181 57.9008 20.1983 56.3117 16.7578C54.7227 13.3174 52.4716 10.2236 49.6869 7.6531C44.0629 2.46178 36.6071 -0.282818 28.9596 0.0230833C21.3121 0.328985 14.0993 3.66033 8.90797 9.28426C3.71665 14.9082 0.972065 22.364 1.27797 30.0115C1.27797 48.466 17.4256 60 28.9596 60C35.88 60 38.1868 57.6932 33.5732 50.7728C30.4975 46.1592 33.5732 43.8524 42.8005 43.8524C52.0277 43.8524 58.9481 36.932 58.9481 27.7047ZM17.4256 25.3979C17.4256 26.9274 16.818 28.3943 15.7365 29.4758C14.6549 30.5574 13.1881 31.1649 11.6586 31.1649C10.1291 31.1649 8.66219 30.5574 7.58067 29.4758C6.49915 28.3943 5.89155 26.9274 5.89155 25.3979C5.89155 23.8684 6.49915 22.4016 7.58067 21.32C8.66219 20.2385 10.1291 19.6309 11.6586 19.6309C13.1881 19.6309 14.6549 20.2385 15.7365 21.32C16.818 22.4016 17.4256 23.8684 17.4256 25.3979ZM26.6528 11.5571C26.6528 13.0866 26.0452 14.5535 24.9637 15.635C23.8822 16.7165 22.4153 17.3241 20.8858 17.3241C19.3563 17.3241 17.8894 16.7165 16.8079 15.635C15.7264 14.5535 15.1188 13.0866 15.1188 11.5571C15.1188 10.0276 15.7264 8.56074 16.8079 7.47921C17.8894 6.39769 19.3563 5.7901 20.8858 5.7901C22.4153 5.7901 23.8822 6.39769 24.9637 7.47921C26.0452 8.56074 26.6528 10.0276 26.6528 11.5571ZM45.1072 11.5571C45.1072 13.0866 44.4997 14.5535 43.4181 15.635C42.3366 16.7165 40.8698 17.3241 39.3403 17.3241C37.8107 17.3241 36.3439 16.7165 35.2624 15.635C34.1808 14.5535 33.5732 13.0866 33.5732 11.5571C33.5732 10.0276 34.1808 8.56074 35.2624 7.47921C36.3439 6.39769 37.8107 5.7901 39.3403 5.7901C40.8698 5.7901 42.3366 6.39769 43.4181 7.47921C44.4997 8.56074 45.1072 10.0276 45.1072 11.5571ZM54.3345 25.3979C54.3345 26.9274 53.7269 28.3943 52.6454 29.4758C51.5638 30.5574 50.0969 31.1649 48.5674 31.1649C47.0379 31.1649 45.5711 30.5574 44.4895 29.4758C43.408 28.3943 42.8005 26.9274 42.8005 25.3979C42.8005 23.8684 43.408 22.4016 44.4895 21.32C45.5711 20.2385 47.0379 19.6309 48.5674 19.6309C50.0969 19.6309 51.5638 20.2385 52.6454 21.32C53.7269 22.4016 54.3345 23.8684 54.3345 25.3979Z" fill="#363739"/>
</svg>