<svg xmlns="http://www.w3.org/2000/svg" width="46" height="36" viewBox="0 0 46 36" fill="none">
<path fill-rule="evenodd" clip-rule="evenodd" d="M0.499512 3C0.499512 1.61929 1.6188 0.5 2.99951 0.5H42.9995C44.3802 0.5 45.4995 1.61929 45.4995 3C45.4995 4.38071 44.3802 5.5 42.9995 5.5H2.99951C1.6188 5.5 0.499512 4.38071 0.499512 3ZM0.499512 18C0.499512 16.6193 1.6188 15.5 2.99951 15.5H42.9995C44.3802 15.5 45.4995 16.6193 45.4995 18C45.4995 19.3807 44.3802 20.5 42.9995 20.5H2.99951C1.6188 20.5 0.499512 19.3807 0.499512 18ZM1.10556 33C1.10556 31.6193 2.22485 30.5 3.60556 30.5H42.3935C43.7742 30.5 44.8935 31.6193 44.8935 33C44.8935 34.3807 43.7742 35.5 42.3935 35.5H3.60556C2.22485 35.5 1.10556 34.3807 1.10556 33Z" fill="#4B4444"/>
</svg>