<svg width="60" height="61" viewBox="0 0 60 61" fill="none" xmlns="http://www.w3.org/2000/svg">
<path d="M35.9999 18.0051C36.3314 18.0051 36.5999 18.2738 36.5999 18.6051V22.4051C36.5999 22.7365 36.3314 23.0051 35.9999 23.0051H23.526L20.876 38.0051H26.3999V43.0051H19.9999L18.408 51.9736C18.3021 52.5704 17.7833 53.0051 17.1772 53.0051H14.7163C13.9386 53.0051 13.3496 52.3024 13.4856 51.5366L14.9999 43.0051H6.48765C5.7111 43.0051 5.1225 42.3046 5.25635 41.5396L5.69385 39.0396C5.79853 38.4416 6.31793 38.0051 6.92515 38.0051H15.8749L18.5249 23.0051H10.0127C9.2361 23.0051 8.6475 22.3046 8.78135 21.5397L9.21885 19.0397C9.32353 18.4415 9.84293 18.0051 10.4502 18.0051H19.3999L20.9918 9.03668C21.0977 8.4399 21.6165 8.00513 22.2226 8.00513H24.6835C25.4611 8.00513 26.0501 8.7078 25.9141 9.47358L24.3999 18.0051H35.9999Z" fill="#423F3F"/>
<path d="M31.1945 35.3052C31.1945 33.9797 32.269 32.9052 33.5945 32.9052H56.3945C57.72 32.9052 58.7945 33.9797 58.7945 35.3052V51.0584C58.7945 52.3839 57.72 53.4584 56.3945 53.4584H45.318C44.7238 53.4584 44.1503 53.6789 43.7093 54.0774L37.5968 59.5997C37.211 59.9484 36.5945 59.6744 36.5945 59.1544V54.0584C36.5945 53.7269 36.326 53.4584 35.9945 53.4584H33.5945C32.269 53.4584 31.1945 52.3839 31.1945 51.0584V35.3052Z" fill="#423F3F"/>
<path fill-rule="evenodd" clip-rule="evenodd" d="M51.1709 10.0104L57.0239 21.8966C57.8419 23.5582 56.6389 25.5052 54.7939 25.5052H43.0264C41.1769 25.5052 39.9739 23.5495 40.8009 21.8872L46.7157 10.001C47.6347 8.15402 50.2597 8.15957 51.1709 10.0104ZM47.7089 19.2553L47.7087 13.0053H50.1969V19.2553H47.7089ZM47.7087 21.7524C47.7087 22.445 48.2659 23.0053 48.9527 23.0053C49.6394 23.0053 50.1969 22.445 50.1969 21.7524C50.1969 21.0609 49.6394 20.4996 48.9527 20.4996C48.2659 20.4996 47.7087 21.0609 47.7087 21.7524Z" fill="#423F3F"/>
</svg>
