<svg width="60" height="61" viewBox="0 0 60 61" fill="none" xmlns="http://www.w3.org/2000/svg">
<path fill-rule="evenodd" clip-rule="evenodd" d="M34.9986 32.9982C34.9986 35.7466 32.7489 37.9954 29.9994 37.9954C27.2498 37.9954 25.0001 35.7466 25.0001 32.9982C25.0001 30.2496 27.2498 28.0009 29.9994 28.0009C32.7489 28.0009 34.9986 30.2496 34.9986 32.9982ZM21.2506 50.4886V49.2392C21.2506 44.9917 24.8501 41.7433 29.9994 41.7433C35.1485 41.7433 38.748 44.9917 38.748 49.2392V50.4886H21.2506ZM17.5012 32.9982C17.5012 26.102 23.1004 20.5049 29.9994 20.5049C36.8984 20.5049 42.4975 26.102 42.4975 32.9982C42.4975 35.2719 41.8477 37.3708 40.7727 39.2198L44.0473 41.1187C45.422 38.72 46.2469 35.9715 46.2469 32.9982C46.2469 24.0529 38.948 16.757 29.9994 16.757C21.0506 16.757 13.7518 24.0529 13.7518 32.9982C13.7518 35.9465 14.5517 38.72 15.9515 41.1187L19.2259 39.2198C18.1512 37.3708 17.5012 35.2719 17.5012 32.9982Z" fill="#3AA360"/>
<path d="M29.9994 9.26114C16.8763 9.26114 6.25287 19.8804 6.25287 32.9983C6.25287 37.3208 7.4277 41.3686 9.42741 44.8419L6.20289 46.7158C3.87823 42.693 2.50342 37.9954 2.50342 32.9983C2.50342 17.8314 14.8266 5.51318 29.9994 5.51318C45.1721 5.51318 57.4952 17.8314 57.4952 32.9983C57.4952 37.9954 56.1205 42.693 53.7709 46.7408L50.5464 44.8668C52.5711 41.3686 53.7458 37.3208 53.7458 32.9983C53.7458 19.8804 43.1225 9.26114 29.9994 9.26114Z" fill="#3AA360"/>
</svg>
