<svg width="60" height="61" viewBox="0 0 60 61" fill="none" xmlns="http://www.w3.org/2000/svg">
<path d="M15.085 52.672C14.3072 52.672 13.7183 51.9669 13.8542 51.1986L15.3686 42.6383H6.8563C6.07975 42.6383 5.49115 41.9354 5.625 41.1678L6.0625 38.6594C6.16718 38.0593 6.68658 37.6214 7.2938 37.6214H16.2436L18.8936 22.5707H10.3813C9.60476 22.5707 9.01616 21.8678 9.15001 21.1003L9.58751 18.5918C9.69218 17.9917 10.2116 17.5538 10.8188 17.5538H19.7686L21.3605 8.55505C21.4664 7.95626 21.9851 7.52002 22.5912 7.52002H25.0521C25.8298 7.52002 26.4188 8.22507 26.2828 8.99343L24.7686 17.5538H39.7686L41.3605 8.55505C41.4663 7.95626 41.9851 7.52002 42.5913 7.52002H45.0521C45.8298 7.52002 46.4188 8.22507 46.2828 8.99343L44.7686 17.5538H53.2808C54.0573 17.5538 54.6461 18.2567 54.5121 19.0242L54.0746 21.5327C53.9701 22.1328 53.4506 22.5707 52.8433 22.5707H43.8936L41.2436 37.6214H49.7558C50.5323 37.6214 51.1211 38.3242 50.9871 39.0918L50.5496 41.6003C50.4451 42.2003 49.9256 42.6383 49.3183 42.6383H40.3685L38.7766 51.6371C38.6708 52.2358 38.1521 52.672 37.5458 52.672H35.085C34.3073 52.672 33.7183 51.9669 33.8543 51.1986L35.3685 42.6383H20.3686L18.7767 51.6371C18.6707 52.2358 18.152 52.672 17.5459 52.672H15.085ZM23.8947 22.5707L21.2447 37.6214H36.2445L38.8946 22.5707H23.8947Z" fill="#565151"/>
</svg>
