<svg width="60" height="61" viewBox="0 0 60 61" fill="none" xmlns="http://www.w3.org/2000/svg">
<path fill-rule="evenodd" clip-rule="evenodd" d="M58.0238 23.9025L52.171 12.2131C51.2598 10.3929 48.6348 10.3874 47.7158 12.2038L41.801 23.8933C40.974 25.528 42.177 27.4514 44.0265 27.4514H55.7938C57.6388 27.4514 58.842 25.5366 58.0238 23.9025ZM49.9527 24.9928C49.266 24.9928 48.7087 24.4418 48.7087 23.7607C48.7087 23.0806 49.266 22.5286 49.9527 22.5286C50.6395 22.5286 51.1968 23.0806 51.1968 23.7607C51.1968 24.4418 50.6395 24.9928 49.9527 24.9928ZM51.197 15.1584H48.7087V21.3049H51.197V15.1584Z" fill="#423F3F"/>
<path d="M42.7072 14.4181L13.1291 20.8234V45.0484C13.1291 46.1106 13.8701 47.034 14.9294 47.2954L24.4294 49.6094C24.6194 49.6534 24.8141 49.6765 25.0041 49.6765C25.7427 49.6765 26.4482 49.3409 26.9042 48.7509L27.4042 48.1013V40.3867L24.0494 44.7455L17.8791 43.2414V37.903L27.4042 39.9672V34.7282C27.4042 30.8178 30.6277 27.6474 34.6042 27.6474H35.8044L42.7072 14.4181Z" fill="#423F3F"/>
<path d="M10.7534 20.813H6.00342V38.1071H10.7534V20.813Z" fill="#423F3F"/>
<path d="M34.5944 32.3686C33.2689 32.3686 32.1944 33.4253 32.1944 34.7288V50.2212C32.1944 51.5248 33.2689 52.5815 34.5944 52.5815H36.9944C37.3256 52.5815 37.5944 52.8456 37.5944 53.1716V58.1832C37.5944 58.6946 38.2106 58.964 38.5964 58.6211L44.7089 53.1902C45.1501 52.7983 45.7234 52.5815 46.3179 52.5815H57.3943C58.7196 52.5815 59.7943 51.5248 59.7943 50.2212V34.7288C59.7943 33.4253 58.7196 32.3686 57.3943 32.3686H34.5944Z" fill="#423F3F"/>
</svg>
