<svg width="60" height="61" viewBox="0 0 60 61" fill="none" xmlns="http://www.w3.org/2000/svg">
<path fill-rule="evenodd" clip-rule="evenodd" d="M50.7845 11.2865V13.6773C52.0719 13.6773 53.1155 14.7209 53.1155 16.0083V23.2405C53.1155 24.5609 52.0452 25.6313 50.7247 25.6313H41.1615C39.8411 25.6313 38.7707 24.5609 38.7707 23.2405V16.0681C38.7707 14.7477 39.8411 13.6773 41.1615 13.6773V11.2865C41.1615 8.60879 43.4328 6.50488 45.9431 6.50488C48.4534 6.50488 50.7845 8.60879 50.7845 11.2865ZM43.5523 13.6773H48.3339V11.2865C48.3339 9.92031 47.2181 8.89569 45.9431 8.89569C44.6681 8.89569 43.5523 9.92031 43.5523 11.2865V13.6773Z" fill="#423F3F"/>
<path d="M32.3908 11.5871C32.3908 10.7926 32.4876 10.0206 32.6703 9.28252C29.7325 7.48098 26.3304 6.50488 22.8276 6.50488C17.8342 6.50488 13.0453 8.48849 9.51446 12.0193C5.98363 15.5502 4 20.339 4 25.3324V40.1256C4 41.1955 4.42506 42.2217 5.18168 42.9783C5.9383 43.735 6.96448 44.1601 8.03448 44.1601H20.1574C21.5395 47.0721 23.6512 49.5913 26.3012 51.4643C29.4807 53.7119 33.2787 54.9185 37.1724 54.9187H51.9655C53.0356 54.9187 54.0618 54.4937 54.8185 53.737C55.5749 52.9803 56 51.9542 56 50.8843V36.0909C56 34.0205 55.6588 31.984 55.0069 30.0568C53.9257 30.4807 52.7487 30.7135 51.5172 30.7135H49.4987C50.2322 32.395 50.6207 34.2237 50.6207 36.0912V49.5394H37.1724C34.3907 49.5394 31.6776 48.6771 29.4061 47.0717C28.1521 46.1851 27.067 45.0964 26.19 43.8574C29.934 43.178 33.4129 41.3734 36.1408 38.6455C38.386 36.4003 40.0055 33.6463 40.8872 30.6547C39.0004 30.4453 37.2793 29.6869 35.8871 28.5429C35.3057 30.9079 34.0876 33.0912 32.337 34.8417C29.815 37.3638 26.3944 38.7808 22.8276 38.7808H9.37931V25.3324C9.37931 21.7657 10.7962 18.3451 13.3182 15.8231C15.8402 13.3011 19.2609 11.8842 22.8276 11.8842C26.3942 11.8842 29.815 13.3011 32.337 15.8231L32.3908 15.8772V11.5871Z" fill="#423F3F"/>
</svg>
