<svg width="60" height="61" viewBox="0 0 60 61" fill="none" xmlns="http://www.w3.org/2000/svg">
<path d="M47.7536 10.3721V13.1511L12.1286 20.8916V45.1972C12.1286 46.2628 12.8696 47.1891 13.9288 47.4516L23.4288 49.7731C23.6188 49.8172 23.8136 49.8404 24.0036 49.8404C24.7422 49.8404 25.4476 49.5039 25.9036 48.9119L26.4036 48.2602V40.5197L23.0488 44.893L16.8786 43.3839V38.0278L26.4036 40.0991V34.8426C26.4036 30.919 29.6271 27.7383 33.6036 27.7383H52.5036V10.3721H47.7536Z" fill="#423F3F"/>
<path d="M9.75293 20.8807H5.00293V38.2324H9.75293V20.8807Z" fill="#423F3F"/>
<path d="M31.1939 34.8428C31.1939 33.5349 32.2684 32.4746 33.5939 32.4746H56.3939C57.7191 32.4746 58.7939 33.5349 58.7939 34.8428V50.3867C58.7939 51.6943 57.7191 52.7548 56.3939 52.7548H45.3174C44.7229 52.7548 44.1496 52.9723 43.7084 53.3655L37.5959 58.8144C37.2102 59.1583 36.5939 58.8882 36.5939 58.3751V53.3468C36.5939 53.0197 36.3251 52.7548 35.9939 52.7548H33.5939C32.2684 52.7548 31.1939 51.6943 31.1939 50.3867V34.8428Z" fill="#423F3F"/>
</svg>
