<svg width="60" height="61" viewBox="0 0 60 61" fill="none" xmlns="http://www.w3.org/2000/svg">
<path fill-rule="evenodd" clip-rule="evenodd" d="M20.1574 44.1601H8.03448C6.96447 44.1601 5.9383 43.7349 5.18167 42.9784C4.42507 42.2218 4 41.1956 4 40.1255V25.3324C4 20.339 5.9836 15.5502 9.51447 12.0194C13.0453 8.48849 17.8342 6.50488 22.8276 6.50488C27.8209 6.50488 32.6099 8.48849 36.1407 12.0194C37.7327 13.6115 39.0103 15.4594 39.9332 17.4666C44.0869 18.0823 47.9348 20.0732 50.8445 23.1467C54.155 26.6434 56 31.2756 56 36.0911V50.8841C56 51.9542 55.5751 52.9804 54.8183 53.737C54.0617 54.4935 53.0355 54.9187 51.9657 54.9187H37.1724C33.2787 54.9187 29.4807 53.7117 26.3011 51.4642C23.6513 49.5913 21.5395 47.0721 20.1574 44.1601ZM13.3182 15.8231C15.8403 13.3011 19.2609 11.8842 22.8276 11.8842C26.3943 11.8842 29.8149 13.3011 32.3371 15.8231C34.8589 18.3451 36.2759 21.7658 36.2759 25.3325C36.2759 28.8992 34.8589 32.3199 32.3371 34.842C29.8149 37.3638 26.3943 38.7808 22.8276 38.7808H21.9746C21.9602 38.7805 21.9458 38.7805 21.9314 38.7808H9.37931V25.3324C9.37931 21.7657 10.7962 18.3451 13.3182 15.8231ZM26.19 43.8574C27.0669 45.0962 28.1521 46.1853 29.4061 47.0715C31.6775 48.6773 34.391 49.5394 37.1724 49.5394H50.6207V36.0911C50.6207 32.6515 49.3027 29.3427 46.9381 26.845C45.4362 25.2586 43.5846 24.076 41.5533 23.376C41.621 24.023 41.6552 24.676 41.6552 25.3325C41.6552 30.3258 39.6716 35.1148 36.1407 38.6456C33.4129 41.3735 29.9339 43.1778 26.19 43.8574Z" fill="#423F3F"/>
</svg>
