<svg width="60" height="61" viewBox="0 0 60 61" fill="none" xmlns="http://www.w3.org/2000/svg">
<g clip-path="url(#clip0_502_7264)">
<path d="M55.0671 5.47168V7.95496C56.4133 7.95496 57.5046 9.03896 57.5046 10.3762V17.8881C57.5046 19.2595 56.3853 20.3714 55.0046 20.3714H45.0046C43.6239 20.3714 42.5046 19.2595 42.5046 17.8881V10.4382C42.5046 9.06677 43.6239 7.95496 45.0046 7.95496V5.47168C45.0046 2.69041 47.3796 0.505127 50.0046 0.505127C52.6296 0.505127 55.0671 2.69041 55.0671 5.47168ZM47.5046 7.95496H52.5046V5.47168C52.5046 4.05266 51.3378 2.9884 50.0046 2.9884C48.6713 2.9884 47.5046 4.05266 47.5046 5.47168V7.95496Z" fill="#3AA360"/>
<path d="M37.4952 6.50224C35.1107 5.83106 32.5947 5.47181 29.9952 5.47181C14.8201 5.47181 2.49512 17.7144 2.49512 32.7879C2.49512 37.7544 3.87012 42.423 6.19512 46.4211L9.42013 44.5586C7.42013 41.1069 6.24512 37.0839 6.24512 32.7879C6.24512 19.7507 16.8701 9.19672 29.9952 9.19672C32.6164 9.19672 35.1379 9.61769 37.4952 10.3953V6.50224Z" fill="#3AA360"/>
<path d="M52.5475 25.3378C53.3305 27.6793 53.7542 30.1839 53.7542 32.7876C53.7542 37.0837 52.5792 41.1066 50.5542 44.5832L53.7792 46.4456C56.1292 42.4227 57.5043 37.7542 57.5043 32.7876C57.5043 30.2055 57.1425 27.7063 56.4668 25.3378H52.5475Z" fill="#3AA360"/>
<path d="M34.9952 32.7879C34.9952 35.5195 32.7452 37.7545 29.9953 37.7545C27.2453 37.7545 24.9953 35.5195 24.9953 32.7879C24.9953 30.0563 27.2453 27.8214 29.9953 27.8214C32.7452 27.8214 34.9952 30.0563 34.9952 32.7879Z" fill="#3AA360"/>
<path d="M21.2453 48.9291V50.1707H38.7453V48.9291C38.7453 44.7075 35.1453 41.4792 29.9953 41.4792C24.8453 41.4792 21.2453 44.7075 21.2453 48.9291Z" fill="#3AA360"/>
<path d="M17.4951 32.7879C17.4951 25.9341 23.095 20.3715 29.995 20.3715C36.895 20.3715 42.495 25.9341 42.495 32.7879C42.495 35.0477 41.845 37.1336 40.77 38.9713L44.045 40.8586C45.42 38.4746 46.245 35.743 46.245 32.7879C46.245 23.8978 38.945 16.6466 29.995 16.6466C21.0451 16.6466 13.7451 23.8978 13.7451 32.7879C13.7451 35.7182 14.5451 38.4746 15.9451 40.8586L19.2201 38.9713C18.1451 37.1336 17.4951 35.0477 17.4951 32.7879Z" fill="#3AA360"/>
</g>
<defs>
<clipPath id="clip0_502_7264">
<rect width="60" height="60" fill="white" transform="translate(0 0.0217285)"/>
</clipPath>
</defs>
</svg>
