<svg width="60" height="61" viewBox="0 0 60 61" fill="none" xmlns="http://www.w3.org/2000/svg">
<path d="M44.5293 22.6326L43.6283 27.6482H38.6295L39.5305 22.6326L24.526 22.632L21.876 37.3836H27.3999V42.3008H20.9999L19.408 51.1209C19.3021 51.7077 18.7833 52.1353 18.1772 52.1353H15.7163C14.9386 52.1353 14.3496 51.4444 14.4856 50.6911L15.9999 42.3008H7.48765C6.7111 42.3008 6.1225 41.6119 6.25635 40.8596L6.69385 38.401C6.79853 37.8129 7.31793 37.3836 7.92515 37.3836H16.8749L19.5249 22.632H11.0127C10.2361 22.632 9.6475 21.943 9.78135 21.1908L10.2189 18.7322C10.3235 18.144 10.8429 17.7148 11.4502 17.7148H20.3999L21.9918 8.89484C22.0977 8.30797 22.6165 7.88037 23.2226 7.88037H25.6835C26.4611 7.88037 27.0501 8.57141 26.9141 9.32453L25.3999 17.7148L40.4043 17.7154L41.9962 8.89547C42.1021 8.3086 42.6209 7.88099 43.2269 7.88099H45.6879C46.4655 7.88099 47.0545 8.57204 46.9185 9.32516L45.4043 17.7154H53.9165C54.6931 17.7154 55.2817 18.4044 55.1478 19.1566L54.7103 21.6153C54.6057 22.2035 54.0863 22.6326 53.479 22.6326H44.5293Z" fill="#423F3F"/>
<path d="M34.6059 32.3687C33.2804 32.3687 32.2059 33.4254 32.2059 34.7289V50.2214C32.2059 51.525 33.2804 52.5817 34.6059 52.5817H37.0059C37.3374 52.5817 37.6059 52.8457 37.6059 53.1718V58.1834C37.6059 58.6948 38.2224 58.9643 38.6081 58.6213L44.7207 53.1904C45.1617 52.7985 45.7352 52.5817 46.3297 52.5817H57.4059C58.7314 52.5817 59.8059 51.525 59.8059 50.2214V34.7289C59.8059 33.4254 58.7314 32.3687 57.4059 32.3687H34.6059Z" fill="#423F3F"/>
</svg>
