<svg width="60" height="61" viewBox="0 0 60 61" fill="none" xmlns="http://www.w3.org/2000/svg">
<path d="M34.9989 20.5049C34.9989 19.1242 33.8796 18.0049 32.4989 18.0049H24.3989L25.9131 9.4734C26.0491 8.70762 25.4601 8.00495 24.6825 8.00495H22.2216C21.6155 8.00495 21.0967 8.43972 20.9908 9.0365L19.3989 18.0049H10.4492C9.84195 18.0049 9.32255 18.4413 9.21787 19.0395L8.78037 21.5395C8.64652 22.3044 9.23512 23.0049 10.0117 23.0049H18.5239L15.8739 38.0049H6.92417C6.31695 38.0049 5.79755 38.4414 5.69288 39.0394L5.25538 41.5394C5.12153 42.3044 5.71013 43.0049 6.48668 43.0049H14.9989L13.4846 51.5364C13.3486 52.3022 13.9376 53.0049 14.7153 53.0049H17.1762C17.7823 53.0049 18.3011 52.5702 18.407 51.9734L19.9989 43.0049H34.9989L33.4846 51.5364C33.3486 52.3022 33.9376 53.0049 34.7154 53.0049H37.1761C37.7824 53.0049 38.3011 52.5702 38.4069 51.9734L39.9989 43.0049H48.9487C49.5559 43.0049 50.0754 42.5684 50.1799 41.9704L50.6174 39.4704C50.7514 38.7054 50.1626 38.0049 49.3861 38.0049H40.8739L41.6884 33.3944C41.9546 31.8872 40.7954 30.5049 39.2646 30.5049C38.0704 30.5049 37.0486 31.3622 36.8409 32.5382L35.8749 38.0049H20.875L23.525 23.0049H32.4989C33.8796 23.0049 34.9989 21.8856 34.9989 20.5049Z" fill="#423F3F"/>
<path d="M52.5573 13.0049V10.5049C52.5573 7.70488 50.1198 5.50488 47.4948 5.50488C44.8698 5.50488 42.4948 7.70488 42.4948 10.5049V13.0049C41.1141 13.0049 39.9948 14.1242 39.9948 15.5049V23.0049C39.9948 24.3856 41.1141 25.5049 42.4948 25.5049H52.4948C53.8756 25.5049 54.9948 24.3856 54.9948 23.0049V15.4424C54.9948 14.0962 53.9036 13.0049 52.5573 13.0049ZM49.9948 13.0049H44.9948V10.5049C44.9948 9.07631 46.1616 8.00488 47.4948 8.00488C48.8281 8.00488 49.9948 9.07631 49.9948 10.5049V13.0049Z" fill="#423F3F"/>
</svg>
