<svg width="60" height="61" viewBox="0 0 60 61" fill="none" xmlns="http://www.w3.org/2000/svg">
<path d="M56.3679 12.7637V10.272C56.3679 7.48144 53.9304 5.28882 51.3054 5.28882C48.6804 5.28882 46.3054 7.48144 46.3054 10.272V12.7637H44.4054C44.0741 12.7637 43.8054 13.0314 43.8054 13.3616V24.6237C43.8054 24.954 44.0741 25.2217 44.4054 25.2217H58.2054C58.5369 25.2217 58.8054 24.954 58.8054 24.6237V13.3616C58.8054 13.0314 58.5369 12.7637 58.2054 12.7637H56.3679ZM53.8054 12.7637H48.8054V10.272C48.8054 8.84826 49.9721 7.78043 51.3054 7.78043C52.6386 7.78043 53.8054 8.84826 53.8054 10.272V12.7637Z" fill="#423F3F"/>
<path d="M38.5999 17.9459C38.9311 17.9459 39.1999 18.2136 39.1999 18.5439V22.3311C39.1999 22.6614 38.9311 22.9291 38.5999 22.9291H23.526L20.876 37.8787H26.3999V42.8619H19.9999L18.408 51.8003C18.3021 52.3951 17.7833 52.8284 17.1772 52.8284H14.7163C13.9386 52.8284 13.3496 52.1282 13.4856 51.3648L14.9999 42.8619H6.48765C5.7111 42.8619 5.1225 42.1638 5.25635 41.4014L5.69385 38.9098C5.79853 38.3138 6.31793 37.8787 6.92515 37.8787H15.8749L18.5249 22.9291H10.0127C9.2361 22.9291 8.6475 22.2309 8.78135 21.4685L9.21885 18.9769C9.32353 18.3808 9.84293 17.9459 10.4502 17.9459H19.3999L20.9918 9.00753C21.0977 8.41279 21.6165 7.97945 22.2226 7.97945H24.6835C25.4611 7.97945 26.0501 8.67976 25.9141 9.44299L24.3999 17.9459H38.5999Z" fill="#423F3F"/>
<path d="M33.5939 32.7964C32.2684 32.7964 31.1939 33.8673 31.1939 35.1884V50.8888C31.1939 52.2098 32.2684 53.2807 33.5939 53.2807H35.9939C36.3254 53.2807 36.5939 53.5483 36.5939 53.8787V58.9579C36.5939 59.4761 37.2104 59.7489 37.5962 59.4014L43.7087 53.8979C44.1497 53.5005 44.7232 53.2807 45.3174 53.2807H56.3939C57.7194 53.2807 58.7939 52.2098 58.7939 50.8888V35.1884C58.7939 33.8673 57.7194 32.7964 56.3939 32.7964H33.5939Z" fill="#423F3F"/>
</svg>
