<svg width="60" height="61" viewBox="0 0 60 61" fill="none" xmlns="http://www.w3.org/2000/svg">
<path d="M34.9999 20.5725C34.9999 19.1871 33.8806 18.0641 32.4999 18.0641H24.3999L25.9141 9.50368C26.0501 8.73532 25.4611 8.03027 24.6835 8.03027H22.2226C21.6165 8.03027 21.0977 8.46652 20.9918 9.06531L19.3999 18.0641H10.4502C9.84293 18.0641 9.32353 18.5019 9.21885 19.1021L8.78135 21.6105C8.6475 22.378 9.2361 23.0809 10.0127 23.0809H18.5249L15.8749 38.1316H6.92515C6.31793 38.1316 5.79853 38.5696 5.69385 39.1696L5.25635 41.6781C5.1225 42.4456 5.7111 43.1485 6.48765 43.1485H14.9999L13.4856 51.7088C13.3496 52.4772 13.9386 53.1823 14.7163 53.1823H17.1772C17.7833 53.1823 18.3021 52.7461 18.408 52.1473L19.9999 43.1485H34.9999L33.4856 51.7088C33.3496 52.4772 33.9386 53.1823 34.7164 53.1823H37.1771C37.7834 53.1823 38.3021 52.7461 38.4079 52.1473L39.9999 43.1485H48.9496C49.5569 43.1485 50.0764 42.7105 50.1809 42.1105L50.6184 39.6021C50.7524 38.8345 50.1636 38.1316 49.3871 38.1316H40.8749L41.6894 33.5055C41.9556 31.9932 40.7964 30.6063 39.2656 30.6063C38.0714 30.6063 37.0496 31.4664 36.8419 32.6464L35.8759 38.1316H20.876L23.526 23.0809H32.4999C33.8806 23.0809 34.9999 21.9579 34.9999 20.5725Z" fill="#423F3F"/>
<path fill-rule="evenodd" clip-rule="evenodd" d="M49.7224 10.0423L55.6034 21.9687C56.4254 23.6359 55.2166 25.5895 53.3626 25.5895H41.5386C39.6801 25.5895 38.4714 23.6271 39.3026 21.9593L45.2456 10.0329C46.1691 8.17968 48.8066 8.18523 49.7224 10.0423ZM48.7436 13.0473H46.2434L46.2436 19.3184H48.7436V13.0473ZM47.4934 23.0811C46.8034 23.0811 46.2434 22.5189 46.2434 21.824C46.2434 21.1301 46.8034 20.5669 47.4934 20.5669C48.1836 20.5669 48.7436 21.1301 48.7436 21.824C48.7436 22.5189 48.1836 23.0811 47.4934 23.0811Z" fill="#423F3F"/>
</svg>
