<svg width="60" height="61" viewBox="0 0 60 61" fill="none" xmlns="http://www.w3.org/2000/svg">
<path d="M57.3683 12.5029V14.9615H59.2058C59.5373 14.9615 59.8058 15.2257 59.8058 15.5516V26.6646C59.8058 26.9903 59.5373 27.2546 59.2058 27.2546H45.4058C45.0746 27.2546 44.8058 26.9903 44.8058 26.6646V15.5516C44.8058 15.2257 45.0746 14.9615 45.4058 14.9615H47.3058V12.5029C47.3058 9.74927 49.6808 7.58569 52.3058 7.58569C54.9308 7.58569 57.3683 9.74927 57.3683 12.5029ZM49.8058 14.9615H54.8058V12.5029C54.8058 11.098 53.6393 10.0443 52.3058 10.0443C50.9726 10.0443 49.8058 11.098 49.8058 12.5029V14.9615Z" fill="#423F3F"/>
<path fill-rule="evenodd" clip-rule="evenodd" d="M40.6039 14.8736L13.1289 20.8235V45.0487C13.1289 46.1108 13.8699 47.034 14.9291 47.2954L24.4291 49.6094C24.6191 49.6534 24.8139 49.6765 25.0039 49.6765C25.7425 49.6765 26.4479 49.3409 26.9039 48.7509L32.7701 41.1309L48.7538 44.5882V47.3625H53.5038V31.1881H45.4038C42.7528 31.1881 40.6039 29.0744 40.6039 26.4675V14.8736ZM17.8789 43.2414L24.0491 44.7455L27.6804 40.0272L17.8789 37.903V43.2414Z" fill="#423F3F"/>
<path d="M10.7544 20.8124H6.00439V38.1065H10.7544V20.8124Z" fill="#423F3F"/>
</svg>
