<svg width="60" height="61" viewBox="0 0 60 61" fill="none" xmlns="http://www.w3.org/2000/svg">
<path d="M56.3685 12.5432V15.01H58.206C58.5375 15.01 58.806 15.275 58.806 15.602V26.7518C58.806 27.0789 58.5375 27.3438 58.206 27.3438H44.406C44.0748 27.3438 43.806 27.0789 43.806 26.7518V15.602C43.806 15.275 44.0748 15.01 44.406 15.01H46.306V12.5432C46.306 9.78038 48.681 7.60962 51.306 7.60962C53.931 7.60962 56.3685 9.78038 56.3685 12.5432ZM48.806 15.01H53.806V12.5432C53.806 11.1336 52.6395 10.0764 51.306 10.0764C49.9728 10.0764 48.806 11.1336 48.806 12.5432V15.01Z" fill="#423F3F"/>
<path d="M39.6042 14.922L12.1292 20.8917V45.1974C12.1292 46.263 12.8702 47.1893 13.9294 47.4518L23.4294 49.7732C23.6194 49.8174 23.8142 49.8406 24.0042 49.8406C24.7428 49.8406 25.4482 49.5041 25.9042 48.9121L26.4042 48.2604V40.5199L23.0494 44.8932L16.8792 43.384V38.0279L26.4042 40.0993V34.8428C26.4042 30.9191 29.6277 27.7385 33.6042 27.7385H39.6042V14.922Z" fill="#423F3F"/>
<path d="M9.75488 20.8805H5.00488V38.2322H9.75488V20.8805Z" fill="#423F3F"/>
<path d="M33.5942 32.4745C32.2687 32.4745 31.1943 33.5347 31.1943 34.8426V50.3865C31.1943 51.6944 32.2687 52.7546 33.5942 52.7546H35.9942C36.3257 52.7546 36.5942 53.0195 36.5942 53.3466V58.3749C36.5942 58.888 37.2107 59.1583 37.5965 58.8142L43.709 53.3654C44.15 52.9722 44.7235 52.7546 45.3177 52.7546H56.3942C57.7197 52.7546 58.7942 51.6944 58.7942 50.3865V34.8426C58.7942 33.5347 57.7197 32.4745 56.3942 32.4745H33.5942Z" fill="#423F3F"/>
</svg>
