<svg width="60" height="61" viewBox="0 0 60 61" fill="none" xmlns="http://www.w3.org/2000/svg">
<path fill-rule="evenodd" clip-rule="evenodd" d="M57.024 24.2169L51.1712 12.3706C50.2597 10.526 47.6347 10.5205 46.7157 12.3612L40.8012 24.2076C39.974 25.8644 41.177 27.8136 43.0265 27.8136H54.794C56.639 27.8136 57.842 25.8731 57.024 24.2169ZM47.7087 15.3554L47.709 21.5845H50.197V15.3554H47.7087ZM48.9527 25.3219C48.2662 25.3219 47.7087 24.7635 47.7087 24.0732C47.7087 23.384 48.2662 22.8246 48.9527 22.8246C49.6395 22.8246 50.197 23.384 50.197 24.0732C50.197 24.7635 49.6395 25.3219 48.9527 25.3219Z" fill="#423F3F"/>
<path fill-rule="evenodd" clip-rule="evenodd" d="M41.7952 14.5863L12.129 21.0969V45.6471C12.129 46.7235 12.87 47.6593 13.9292 47.9242L23.4292 50.2693C23.6192 50.3139 23.814 50.3373 24.004 50.3373C24.7426 50.3373 25.448 49.9972 25.904 49.3992L31.7702 41.677L47.754 45.1804V47.9922H52.504V30.4044H42.1635C38.6967 30.4044 36.3732 26.8541 37.7707 23.6922L41.7952 14.5863ZM16.879 43.8158L23.0492 45.3399L26.6805 40.5585L16.879 38.4057V43.8158Z" fill="#423F3F"/>
<path d="M9.75439 21.0857H5.00439V38.612H9.75439V21.0857Z" fill="#423F3F"/>
</svg>
