<svg width="60" height="61" viewBox="0 0 60 61" fill="none" xmlns="http://www.w3.org/2000/svg">
<path d="M15.0101 52.5217C14.0768 52.5217 13.37 51.6784 13.5332 50.7595L14.9954 42.5218H6.78066C5.84883 42.5218 5.14251 41.6809 5.30313 40.7632L5.65314 38.7631C5.77875 38.0455 6.402 37.5217 7.13067 37.5217H15.8704L18.5204 22.5217H10.3057C9.37383 22.5217 8.66751 21.681 8.82813 20.7632L9.17814 18.7631C9.30375 18.0454 9.927 17.5217 10.6557 17.5217H19.3954L20.9507 8.75959C21.0778 8.04346 21.7003 7.52173 22.4276 7.52173H24.3807C25.314 7.52173 26.0207 8.36494 25.8576 9.28387L24.3954 17.5217H39.3953L40.9505 8.75959C41.0777 8.04346 41.7002 7.52173 42.4274 7.52173H44.3807C45.314 7.52173 46.0208 8.36494 45.8576 9.28387L44.3954 17.5217H52.61C53.5418 17.5217 54.2483 18.3624 54.0875 19.2803L53.7377 21.2803C53.612 21.998 52.9886 22.5217 52.2599 22.5217H43.5203L42.7253 27.0217H37.7264L38.5214 22.5217H23.5215L20.8715 37.5217H26.9953V42.5218H19.9954L18.4401 51.2839C18.313 52 17.6905 52.5217 16.9632 52.5217H15.0101Z" fill="#423F3F"/>
<path fill-rule="evenodd" clip-rule="evenodd" d="M31.2001 42.0217C31.2001 36.0571 36.0355 31.2217 42.0001 31.2217C47.965 31.2217 52.8001 36.0571 52.8001 42.0217C52.8001 44.3542 52.0609 46.5142 50.8036 48.2794L56.773 54.2491C57.4759 54.952 57.4759 56.0917 56.773 56.7946C56.0701 57.4975 54.9304 57.4975 54.2275 56.7946L48.2578 50.8252C46.4926 52.0825 44.3326 52.8217 42.0001 52.8217C36.0355 52.8217 31.2001 47.9866 31.2001 42.0217ZM42.0001 34.8217C38.0236 34.8217 34.8001 38.0452 34.8001 42.0217C34.8001 45.9982 38.0236 49.2217 42.0001 49.2217C45.9766 49.2217 49.2001 45.9982 49.2001 42.0217C49.2001 38.0452 45.9766 34.8217 42.0001 34.8217Z" fill="#423F3F"/>
</svg>
