<svg width="60" height="60" viewBox="0 0 60 60" fill="none" xmlns="http://www.w3.org/2000/svg">
<path fill-rule="evenodd" clip-rule="evenodd" d="M42.2201 20.6143H50.0051C52.7651 20.6143 55.0051 22.8719 55.0051 25.6479V30.6814H5.00513V25.6479C5.00513 22.8719 7.24763 20.6143 10.0051 20.6143H17.7901C16.6626 20.0229 15.5951 19.3005 14.7026 18.4046C11.7776 15.4599 11.7776 10.6705 14.7026 7.72841C17.5351 4.8769 22.4701 4.8769 25.3076 7.72338C29.4001 11.8433 29.9526 19.5975 30.0001 20.4683C30.0029 20.4973 29.9966 20.5232 29.9904 20.549C29.9851 20.5703 29.9801 20.5915 29.9801 20.6143H30.0301C30.0301 20.5913 30.0249 20.5699 30.0196 20.5485L30.0191 20.5462C30.0132 20.5217 30.0074 20.4973 30.0101 20.4709C30.0601 19.6 30.6101 11.8459 34.7026 7.72589C37.5401 4.87438 42.4701 4.8769 45.3076 7.72338C48.2301 10.673 48.2301 15.4625 45.3076 18.4046C44.4151 19.3005 43.3476 20.0229 42.2201 20.6143ZM35.4401 17.6571C35.9026 15.4348 36.7601 12.772 38.2376 11.2871C38.7076 10.8089 39.3351 10.5497 40.0051 10.5497C40.6751 10.5497 41.3026 10.8089 41.7701 11.2821C42.7451 12.2662 42.7476 13.8618 41.7726 14.8459C40.2951 16.3333 37.6476 17.199 35.4401 17.6571ZM7.50513 35.715V50.8156C7.50513 53.5916 9.74762 55.8492 12.5051 55.8492H27.5051V35.715H7.50513ZM32.5051 35.715V55.8492H47.5051C50.2651 55.8492 52.5051 53.5916 52.5051 50.8156V35.715H32.5051ZM18.2376 11.2846C17.2626 12.2662 17.2626 13.8618 18.2376 14.8459C19.7026 16.3207 22.3676 17.1915 24.5676 17.6521C24.1076 15.4323 23.2476 12.7695 21.7726 11.2846C21.3026 10.8089 20.6751 10.5497 20.0051 10.5497C19.3351 10.5497 18.7076 10.8089 18.2376 11.2846Z" fill="#5C5555"/>
</svg>
