<svg width="60" height="61" viewBox="0 0 60 61" fill="none" xmlns="http://www.w3.org/2000/svg">
<path d="M31.0039 28.1229C29.4789 28.1229 28.2539 29.3195 28.2539 30.8092C28.2539 32.2989 29.4789 33.4955 31.0039 33.4955C32.5289 33.4955 33.7539 32.2989 33.7539 30.8092C33.7539 29.3195 32.5289 28.1229 31.0039 28.1229ZM31.0039 6.38867C17.2039 6.38867 6.00391 17.3291 6.00391 30.8092C6.00391 44.2893 17.2039 55.2297 31.0039 55.2297C44.8039 55.2297 56.0039 44.2893 56.0039 30.8092C56.0039 17.3291 44.8039 6.38867 31.0039 6.38867ZM36.4789 36.1573L16.0039 45.4615L25.5289 25.4611L46.0039 16.1569L36.4789 36.1573Z" fill="#3BA565"/>
</svg>
