<svg width="60" height="61" viewBox="0 0 60 61" fill="none" xmlns="http://www.w3.org/2000/svg">
<path d="M47.6751 30.9002C50.0024 33.9004 51.9374 36.871 53.3599 39.657C57.4689 47.7166 56.0339 51.6604 54.1089 53.5496C53.2419 54.3945 51.6534 55.407 48.9921 55.407C44.4156 55.407 37.8739 52.3625 31.0054 47.2486C24.1343 52.3625 17.5926 55.407 13.0186 55.407C10.3572 55.407 8.76635 54.3945 7.9018 53.5496C5.9742 51.6577 4.5392 47.7166 8.65072 39.657C10.0732 36.871 12.0108 33.9029 14.3355 30.9002C7.29362 21.801 3.5088 12.5737 7.9018 8.26551C8.76885 7.41814 10.3572 6.40576 13.0186 6.40576C17.5951 6.40576 24.1368 9.45032 31.0054 14.564C37.8764 9.45032 44.4181 6.40576 48.9921 6.40576C51.6534 6.40576 53.2419 7.41569 54.1089 8.26551C58.5019 12.5712 54.7171 21.7985 47.6751 30.9002ZM50.5551 11.7485C50.2059 11.4037 49.5124 11.3322 48.9921 11.3322C46.1246 11.3322 40.9876 13.5615 35.0566 17.7958C38.5699 20.7763 41.5909 23.7667 44.4181 26.9763C50.3844 18.9806 51.8896 13.0565 50.5551 11.7485ZM36.3356 36.1322C38.1679 34.3363 39.7814 32.5974 41.2364 30.915C39.7234 29.1586 38.0899 27.4024 36.3356 25.6806C34.5364 23.9194 32.7569 22.3651 31.0054 20.9167C29.2536 22.3651 27.4744 23.9194 25.6749 25.6806C23.9207 27.4024 22.2872 29.1586 20.7742 30.915C22.2294 32.5974 23.8453 34.3363 25.6749 36.1322C27.4744 37.8957 29.2536 39.4499 31.0054 40.8934C32.7569 39.4499 34.5364 37.8957 36.3356 36.1322ZM13.0186 11.3322C12.5009 11.3322 11.8073 11.4037 11.4579 11.7485C10.1209 13.0565 11.6288 18.9781 17.5951 26.9738C20.5933 23.5696 23.6468 20.6038 26.9541 17.7933C21.0205 13.5615 15.8861 11.3322 13.0186 11.3322ZM11.4554 50.0665C11.8047 50.409 12.4984 50.4804 13.0186 50.4804C15.8861 50.4804 21.023 48.2537 26.9541 44.0218C23.4633 41.0586 20.4726 38.1003 17.6076 34.8487C15.8057 37.2628 14.2827 39.6322 13.1468 41.8591C10.4929 47.059 10.8799 49.5024 11.4554 50.0665ZM48.9896 50.4804C49.5096 50.4804 50.2034 50.409 50.5526 50.0665C51.1281 49.5024 51.5154 47.0614 48.8614 41.8591C47.7254 39.6298 46.2024 37.2603 44.4004 34.8487C41.5329 38.1028 38.5424 41.061 35.0541 44.0218C40.9876 48.2537 46.1221 50.4804 48.9896 50.4804ZM36.0316 30.9051C36.0316 33.626 33.7814 35.8315 31.0054 35.8315C28.2294 35.8315 25.979 33.626 25.979 30.9051C25.979 28.1843 28.2294 25.9786 31.0054 25.9786C33.7814 25.9786 36.0316 28.1843 36.0316 30.9051Z" fill="#423F3F"/>
</svg>
