<svg width="60" height="61" viewBox="0 0 60 61" fill="none" xmlns="http://www.w3.org/2000/svg">
<path d="M57.1131 20.4435L32.1131 8.1511C31.4106 7.80445 30.5806 7.80445 29.8756 8.1511L4.87561 20.4435C4.37061 20.6893 3.98811 21.1171 3.76311 21.5817C3.61061 21.8817 3.49561 22.3906 3.49561 22.6438V36.8168C3.49561 38.1739 4.61561 39.2753 5.99561 39.2753C7.37561 39.2753 8.49561 38.1739 8.49561 36.8168V25.5128L31.0331 34.7444L56.9256 24.9253C57.8381 24.5639 58.4531 23.7132 58.4931 22.7446C58.5356 21.776 57.9931 20.8786 57.1131 20.4435ZM30.9956 39.8531C30.6681 39.8531 30.3406 39.7891 30.0331 39.6638L13.4956 32.8882V40.2956C13.4956 41.2273 14.0306 42.078 14.8781 42.4959C15.2889 42.6978 15.7008 42.9043 16.1165 43.1125C20.0399 45.0788 24.2955 47.2113 30.9956 47.2113C37.6986 47.2113 41.9636 45.0734 45.8856 43.1073C46.2976 42.9008 46.7061 42.696 47.1131 42.4959C47.9606 42.0804 48.4956 41.2273 48.4956 40.298V33.4119L31.8931 39.6908C31.6031 39.7965 31.3006 39.8531 30.9956 39.8531ZM3.49561 44.77C3.49561 43.4129 4.61561 42.3115 5.99561 42.3115C7.37561 42.3115 8.49561 43.4129 8.49561 44.77V49.6869C8.49561 51.044 7.37561 52.1454 5.99561 52.1454C4.61561 52.1454 3.49561 51.044 3.49561 49.6869V44.77Z" fill="#423F3F"/>
</svg>
