<svg width="60" height="61" viewBox="0 0 60 61" fill="none" xmlns="http://www.w3.org/2000/svg">
<path d="M15.1604 13.7568H46.836C50.7677 13.7568 54.0322 16.7331 54.3162 20.5768L55.981 43.1055C56.1692 45.6516 54.2157 47.865 51.6182 48.0495C51.5047 48.0576 51.3912 48.0615 51.2775 48.0615C48.2957 48.0615 45.6945 46.0777 44.962 43.2446L43.6727 38.2602H18.3236L17.0344 43.2446C16.3018 46.0777 13.7006 48.0615 10.7189 48.0615C8.11433 48.0615 6.00293 45.992 6.00293 43.4392C6.00293 43.3279 6.00705 43.2165 6.01525 43.1055L7.67998 20.5768C7.964 16.7331 11.2285 13.7568 15.1604 13.7568ZM37.2482 26.0085C39.3192 26.0085 40.9982 24.3629 40.9982 22.333C40.9982 20.3031 39.3192 18.6575 37.2482 18.6575C35.1772 18.6575 33.4982 20.3031 33.4982 22.333C33.4982 24.3629 35.1772 26.0085 37.2482 26.0085ZM47.2482 33.3595C49.3192 33.3595 50.9982 31.7139 50.9982 29.684C50.9982 27.6541 49.3192 26.0085 47.2482 26.0085C45.1772 26.0085 43.4982 27.6541 43.4982 29.684C43.4982 31.7139 45.1772 33.3595 47.2482 33.3595ZM15.9982 23.5582H10.9982V28.4588H15.9982V33.3595H20.9982V28.4588H25.9982V23.5582H20.9982V18.6575H15.9982V23.5582Z" fill="#423F3F"/>
</svg>
