<svg width="142" height="142" viewBox="0 0 142 142" fill="none" xmlns="http://www.w3.org/2000/svg">
<g clip-path="url(#clip0_502_8235)">
<path d="M120.395 26.7546C111.33 22.5955 101.61 19.5311 91.4463 17.776C91.2613 17.7422 91.0763 17.8268 90.981 17.9961C89.7309 20.2196 88.3463 23.1203 87.3765 25.4002C76.4452 23.7637 65.57 23.7637 54.8629 25.4002C53.8931 23.0695 52.4581 20.2196 51.2024 17.9961C51.1071 17.8325 50.9221 17.7478 50.7371 17.776C40.5794 19.5255 30.859 22.5898 21.7888 26.7546C21.7103 26.7885 21.6431 26.8449 21.5982 26.9183C3.16078 54.4636 -1.89004 81.3317 0.587722 107.867C0.598933 107.997 0.671809 108.121 0.772713 108.2C12.9373 117.133 24.7206 122.557 36.2854 126.151C36.4704 126.208 36.6666 126.14 36.7843 125.988C39.5199 122.252 41.9584 118.313 44.0494 114.17C44.1727 113.928 44.055 113.64 43.8027 113.544C39.9347 112.077 36.2517 110.288 32.7089 108.256C32.4286 108.093 32.4062 107.692 32.664 107.5C33.4096 106.941 34.1552 106.36 34.8671 105.773C34.996 105.666 35.1754 105.643 35.3268 105.711C58.602 116.338 83.8 116.338 106.801 105.711C106.952 105.638 107.131 105.66 107.266 105.768C107.978 106.354 108.723 106.941 109.474 107.5C109.732 107.692 109.716 108.093 109.435 108.256C105.892 110.327 102.209 112.077 98.3358 113.538C98.0835 113.634 97.9714 113.928 98.0948 114.17C100.231 118.307 102.669 122.246 105.354 125.982C105.466 126.14 105.668 126.208 105.853 126.151C117.474 122.557 129.257 117.133 141.422 108.2C141.528 108.121 141.596 108.002 141.607 107.872C144.572 77.1951 136.64 50.5471 120.58 26.9239C120.54 26.8449 120.473 26.7885 120.395 26.7546ZM47.525 91.7099C40.5177 91.7099 34.7438 85.2764 34.7438 77.3757C34.7438 69.475 40.4056 63.0415 47.525 63.0415C54.7004 63.0415 60.4183 69.5314 60.3062 77.3757C60.3062 85.2764 54.6443 91.7099 47.525 91.7099ZM94.7817 91.7099C87.7745 91.7099 82.0005 85.2764 82.0005 77.3757C82.0005 69.475 87.6624 63.0415 94.7817 63.0415C101.957 63.0415 107.675 69.5314 107.563 77.3757C107.563 85.2764 101.957 91.7099 94.7817 91.7099Z" fill="#3D3B3B"/>
</g>
<defs>
<clipPath id="clip0_502_8235">
<rect width="141.717" height="141.717" fill="white" transform="translate(0 0.152466)"/>
</clipPath>
</defs>
</svg>
