<svg width="60" height="61" viewBox="0 0 60 61" fill="none" xmlns="http://www.w3.org/2000/svg">
<path d="M30.0045 5.50488C26.5528 5.50488 23.7545 8.30311 23.7545 11.7549C23.7545 11.7974 23.7549 11.8399 23.7558 11.8823C23.8103 14.6079 25.6522 16.919 28.1252 17.7174L31.8752 17.7201C34.3974 16.9157 36.2545 14.5438 36.2545 11.7549C36.2545 8.30311 33.4563 5.50488 30.0045 5.50488Z" fill="#58F287"/>
<path d="M13.1253 35.505C13.1253 33.779 14.5244 32.38 16.2503 32.38H28.1252V43.2929C25.5917 44.0907 23.7545 46.4585 23.7545 49.2554C23.7545 52.7071 26.5528 55.5054 30.0045 55.5054C33.4563 55.5054 36.2545 52.7071 36.2545 49.2554C36.2545 46.4553 34.4131 44.0852 31.8752 43.2901V32.38H43.7503C45.4763 32.38 46.8753 33.779 46.8753 35.505V43.2928C44.3418 44.0906 42.5045 46.4584 42.5045 49.2554C42.5045 52.7071 45.3028 55.5054 48.7545 55.5054C52.2062 55.5054 55.0045 52.7071 55.0045 49.2554C55.0045 46.4553 53.1631 44.0853 50.6253 43.2902V35.505C50.6253 31.708 47.5473 28.63 43.7503 28.63H31.8752V17.7201L28.1252 17.7174V28.63H16.2503C12.4533 28.63 9.37529 31.708 9.37529 35.505V43.2928C6.84172 44.0905 5.00439 46.4584 5.00439 49.2554C5.00439 52.7071 7.80262 55.5054 11.2544 55.5054C14.7062 55.5054 17.5044 52.7071 17.5044 49.2554C17.5044 46.4554 15.6631 44.0854 13.1253 43.2902V35.505Z" fill="#58F287"/>
</svg>
