<svg width="60" height="60" viewBox="0 0 60 60" fill="none" xmlns="http://www.w3.org/2000/svg">
<path d="M54.2675 51.1217L40.785 37.6392C43.5075 34.1492 45 29.8867 45 25.3892C45 20.0467 42.9175 15.0242 39.14 11.2492C35.365 7.46916 30.3425 5.38916 25 5.38916C19.6575 5.38916 14.635 7.46916 10.86 11.2492C7.0825 15.0242 5 20.0467 5 25.3892C5 30.7317 7.0825 35.7542 10.86 39.5292C14.635 43.3092 19.6575 45.3892 25 45.3892C29.4975 45.3892 33.76 43.8992 37.25 41.1742L50.7325 54.6542L54.2675 51.1217ZM25 40.3892C20.9925 40.3892 17.2275 38.8292 14.395 35.9967C11.56 33.1642 10 29.3967 10 25.3892C10 21.3842 11.56 17.6167 14.395 14.7842C17.2275 11.9492 20.9925 10.3892 25 10.3892C29.0075 10.3892 32.7725 11.9492 35.605 14.7842C38.44 17.6167 40 21.3842 40 25.3892C40 29.3967 38.44 33.1642 35.605 35.9967C32.7725 38.8292 29.0075 40.3892 25 40.3892Z" fill="#484545"/>
</svg>
