<svg width="60" height="61" viewBox="0 0 60 61" fill="none" xmlns="http://www.w3.org/2000/svg">
<path d="M48.49 8.83512C47.54 8.1205 46.31 7.90586 45.175 8.24424L20.175 15.8197C18.5875 16.2995 17.5 17.7767 17.5 19.4509V38.5185C17.0875 38.4579 16.6775 38.3897 16.25 38.3897C11.415 38.3897 7.5 42.3492 7.5 47.2278C7.5 52.1039 11.415 56.0659 16.25 56.0659C21.085 56.0659 25 52.1039 25 47.2278V22.2665L42.5 16.9636V33.4682C42.0875 33.4076 41.6775 33.3394 41.25 33.3394C36.415 33.3394 32.5 37.2989 32.5 42.1775C32.5 47.0536 36.415 51.0156 41.25 51.0156C46.085 51.0156 50 47.0536 50 42.1775V11.8754C50 10.6734 49.4375 9.54975 48.49 8.83512Z" fill="#423F3F"/>
</svg>
