<svg width="60" height="61" viewBox="0 0 60 61" fill="none" xmlns="http://www.w3.org/2000/svg">
<path d="M41.9569 6.14925L35.2069 14.6907H24.8019L18.0519 6.14925L21.9569 2.98828L30.0044 13.1697L38.0519 2.98828L41.9569 6.14925ZM10.0044 17.2215H50.0044C52.7544 17.2215 55.0044 19.4992 55.0044 22.2831V47.5912C55.0044 50.3751 52.7544 52.6527 50.0044 52.6527H10.0044C7.25439 52.6527 5.00439 50.3751 5.00439 47.5912V22.2831C5.00439 19.4992 7.25439 17.2215 10.0044 17.2215ZM10.0044 47.5912H40.0044V22.2831H10.0044V47.5912ZM45.0044 41.2642C45.0044 42.6612 46.1244 43.7948 47.5044 43.7948C48.8844 43.7948 50.0044 42.6612 50.0044 41.2642C50.0044 39.8671 48.8844 38.7333 47.5044 38.7333C46.1244 38.7333 45.0044 39.8671 45.0044 41.2642ZM45.0044 28.6102C45.0044 30.0072 46.1244 31.1408 47.5044 31.1408C48.8844 31.1408 50.0044 30.0072 50.0044 28.6102C50.0044 27.2131 48.8844 26.0793 47.5044 26.0793C46.1244 26.0793 45.0044 27.2131 45.0044 28.6102Z" fill="#423F3F"/>
</svg>
