<svg width="61" height="60" viewBox="0 0 61 60" fill="none" xmlns="http://www.w3.org/2000/svg">
<g clip-path="url(#clip0_1719_5)">
<path d="M6.51758 10V13.75C6.51758 24.125 12.0426 33.2 20.2676 38.25V50H57.7676V45C57.7676 38.35 44.4426 35 37.7676 35C37.7676 35 37.3426 35 37.1426 35C25.2676 35 15.2676 25 15.2676 13.75V10H6.51758ZM37.7676 10C32.2447 10 27.7676 14.4772 27.7676 20C27.7676 25.5228 32.2447 30 37.7676 30C43.2904 30 47.7676 25.5228 47.7676 20C47.7676 14.4772 43.2904 10 37.7676 10Z" fill="#464444"/>
</g>
<defs>
<clipPath id="clip0_1719_5">
<rect width="60" height="60" fill="white" transform="translate(0.267578)"/>
</clipPath>
</defs>
</svg>
