<svg width="60" height="61" viewBox="0 0 60 61" fill="none" xmlns="http://www.w3.org/2000/svg">
<path d="M15.0059 55.1335V45.2008H10.0059C8.67978 45.2008 7.40801 44.6776 6.47033 43.7462C5.53264 42.8149 5.00586 41.5517 5.00586 40.2345V10.4365C5.00586 9.11939 5.53264 7.85619 6.47033 6.92482C7.40801 5.99345 8.67978 5.47021 10.0059 5.47021H50.0059C51.3319 5.47021 52.6037 5.99345 53.5414 6.92482C54.4791 7.85619 55.0059 9.11939 55.0059 10.4365V40.2345C55.0059 41.5517 54.4791 42.8149 53.5414 43.7462C52.6037 44.6776 51.3319 45.2008 50.0059 45.2008H28.3392L15.0059 55.1335ZM10.0059 10.4365V40.2345H20.0059V45.2008L26.6725 40.2345H50.0059V10.4365H10.0059Z" fill="#423F3F"/>
<path d="M22.4945 15.4032H17.4944V35.2685H22.4945V15.4032Z" fill="#423F3F"/>
<path d="M32.5059 25.3359H27.5059V35.2685H32.5059V25.3359Z" fill="#423F3F"/>
<path d="M42.5003 20.3693H37.5003V35.2683H42.5003V20.3693Z" fill="#423F3F"/>
</svg>
