<svg width="60" height="61" viewBox="0 0 60 61" fill="none" xmlns="http://www.w3.org/2000/svg">
<path fill-rule="evenodd" clip-rule="evenodd" d="M35 20.52C35 26.0326 30.515 30.5201 25 30.5201C19.4875 30.5201 15 26.0326 15 20.52C15 15.0075 19.485 10.52 25 10.52C30.515 10.52 35 15.0075 35 20.52ZM5 48.0201C5 39.1876 13.225 33.0201 25 33.0201C36.7775 33.0201 45 39.1876 45 48.0201V50.5201H5V48.0201Z" fill="#423F3F"/>
<path d="M50.0002 50.5199H55.0002V48.0199C55.0002 41.6131 50.6742 36.6086 43.8032 34.3429C47.6553 37.7866 50.0002 42.5196 50.0002 48.0199V50.5199Z" fill="#423F3F"/>
<path d="M37.2085 30.2738C41.6642 29.2656 45.0002 25.2738 45.0002 20.5195C45.0002 15.4275 41.1732 11.21 36.2427 10.5963C38.5805 13.2423 40.0002 16.7177 40.0002 20.5195C40.0002 24.1268 38.7222 27.4401 36.5945 30.0301C36.8007 30.1091 37.0055 30.1903 37.2085 30.2738Z" fill="#423F3F"/>
</svg>
