<svg width="60" height="61" viewBox="0 0 60 61" fill="none" xmlns="http://www.w3.org/2000/svg">
<path d="M30.0005 5.50537C16.2155 5.50537 5.00049 16.7254 5.00049 30.5054C5.00049 44.2954 16.2155 55.5054 30.0005 55.5054C43.7855 55.5054 55.0005 44.2954 55.0005 30.5054C55.0005 16.7254 43.7855 5.50537 30.0005 5.50537ZM30.0005 17.3854C30.4109 17.3854 30.8172 17.4662 31.1964 17.6232C31.5755 17.7803 31.92 18.0105 32.2102 18.3007C32.5004 18.5908 32.7306 18.9353 32.8876 19.3145C33.0447 19.6936 33.1255 20.1 33.1255 20.5104C33.1255 20.9208 33.0447 21.3271 32.8876 21.7063C32.7306 22.0854 32.5004 22.4299 32.2102 22.7201C31.92 23.0103 31.5755 23.2405 31.1964 23.3975C30.8172 23.5545 30.4109 23.6354 30.0005 23.6354C29.1717 23.6354 28.3768 23.3061 27.7908 22.7201C27.2047 22.134 26.8755 21.3392 26.8755 20.5104C26.8755 19.6816 27.2047 18.8867 27.7908 18.3007C28.3768 17.7146 29.1717 17.3854 30.0005 17.3854ZM37.5005 43.0054H22.5005V38.0054H27.5005V30.5054H25.0005V25.5054H30.0005C30.6635 25.5054 31.2994 25.7688 31.7683 26.2376C32.2371 26.7064 32.5005 27.3423 32.5005 28.0054V38.0054H37.5005V43.0054Z" fill="#423F3F"/>
</svg>
