<svg width="60" height="61" viewBox="0 0 60 61" fill="none" xmlns="http://www.w3.org/2000/svg">
<path d="M7.49951 30.7055C7.49951 36.2676 9.77451 41.276 13.3995 44.9002L7.49951 50.8397H22.4995V35.7391L16.8995 41.3767C14.1995 38.6334 12.4995 34.8834 12.4995 30.7055C12.4995 24.1367 16.6745 18.5495 22.4995 16.4857V11.2257C13.8745 13.4656 7.49951 21.3179 7.49951 30.7055ZM52.4995 10.5713H37.4995V25.672L43.0995 20.0344C45.7995 22.7777 47.4995 26.5277 47.4995 30.7055C47.4995 37.2743 43.3245 42.8616 37.4995 44.9253V50.1854C46.1245 47.9455 52.4995 40.0931 52.4995 30.7055C52.4995 25.1434 50.2245 20.135 46.5995 16.5109L52.4995 10.5713Z" fill="#6B5431"/>
<path d="M27.5049 43.2889V38.2553H32.5049V43.2889H27.5049ZM27.5049 33.2218V18.1211H32.5049V33.2218H27.5049Z" fill="#F8A630"/>
</svg>
