<svg width="60" height="61" viewBox="0 0 60 61" fill="none" xmlns="http://www.w3.org/2000/svg">
<g clip-path="url(#clip0_502_7437)">
<path fill-rule="evenodd" clip-rule="evenodd" d="M33.2248 5.50488H15C9.47715 5.50488 5 9.98203 5 15.5049V45.5049C5 51.0276 9.47715 55.5049 15 55.5049H45C50.5228 55.5049 55 51.0276 55 45.5049V27.2801C53.4157 27.7516 51.7375 28.0049 50 28.0049C40.335 28.0049 32.5 20.1699 32.5 10.5049C32.5 8.76746 32.7533 7.08916 33.2248 5.50488ZM20 15.5049C22.758 15.5049 25 17.7429 25 20.5049C25 23.2689 22.758 25.5049 20 25.5049C17.236 25.5049 15 23.2689 15 20.5049C15 17.7429 17.236 15.5049 20 15.5049ZM15 45.5049L22.5 35.5049L27.5 40.5049L37.5 28.0049L45 45.5049H15Z" fill="#423F3F"/>
<path d="M52.5 0.504883V8.00488H60V13.0049H52.5V20.5049H47.5V13.0049H40V8.00488H47.5V0.504883H52.5Z" fill="#423F3F"/>
</g>
<defs>
<clipPath id="clip0_502_7437">
<rect width="60" height="60" fill="white" transform="translate(0 0.0214844)"/>
</clipPath>
</defs>
</svg>
