<svg width="60" height="61" viewBox="0 0 60 61" fill="none" xmlns="http://www.w3.org/2000/svg">
<path d="M42.5 36.3715V41.1215C47.07 42.039 50 43.4415 50 45.0215C50 47.7865 41.0475 50.0215 30 50.0215C18.9525 50.0215 10 47.7865 10 45.0215C10 43.4415 12.9325 42.039 17.5 41.1215V36.3715C10.035 38.099 5 41.3215 5 45.0215C5 50.5465 16.1925 55.0215 30 55.0215C43.8075 55.0215 55 50.5465 55 45.0215C55 41.3215 49.965 38.099 42.5 36.3715ZM45 20.0215C45 11.739 38.285 5.02148 30 5.02148C21.715 5.02148 15 11.739 15 20.0215C15 30.0215 30 47.5215 30 47.5215C30 47.5215 45 30.0215 45 20.0215ZM25 20.0215C25 17.2615 27.24 15.0215 30 15.0215C32.76 15.0215 35 17.2615 35 20.0215C35 22.7815 32.76 25.0215 30 25.0215C27.24 25.0215 25 22.7815 25 20.0215Z" fill="#423F3F"/>
</svg>
