<svg width="60" height="61" viewBox="0 0 60 61" fill="none" xmlns="http://www.w3.org/2000/svg">
<path d="M27.5 27.7549V22.5781C24.587 21.5485 22.5 18.7704 22.5 15.5049C22.5 11.3628 25.8577 8.00488 30 8.00488C34.1423 8.00488 37.5 11.3628 37.5 15.5049H42.5C42.5 8.60133 36.9035 3.00488 30 3.00488C23.0965 3.00488 17.5 8.60133 17.5 15.5049C17.5 19.9924 19.8647 23.9275 23.4159 26.1324L15.7373 40.5589C15.4967 40.5234 15.2505 40.5049 15 40.5049C12.2386 40.5049 10 42.7434 10 45.5049C10 48.2664 12.2386 50.5049 15 50.5049C17.0503 50.5049 18.8124 49.2709 19.584 47.5049H40.416C41.1875 49.2709 42.9497 50.5049 45 50.5049C47.7615 50.5049 50 48.2664 50 45.5049C50 42.7434 47.7615 40.5049 45 40.5049C42.9497 40.5049 41.1875 41.7389 40.416 43.5049H19.584C19.5711 43.4754 19.558 43.4461 19.5445 43.4169L27.5 27.7549Z" fill="#423F3F"/>
<path d="M30 20.5049C27.2385 20.5049 25 18.2663 25 15.5049C25 12.7435 27.2385 10.5049 30 10.5049C32.7615 10.5049 35 12.7435 35 15.5049C35 16.5931 34.6523 17.6001 34.062 18.421L45 33.0049C51.9035 33.0049 57.5 38.6014 57.5 45.5049C57.5 52.4084 51.9035 58.0049 45 58.0049C39.8743 58.0049 35.469 54.9196 33.54 50.5049H39.4097C40.783 52.0394 42.7788 53.0049 45 53.0049C49.142 53.0049 52.5 49.6471 52.5 45.5049C52.5 41.3626 49.142 38.0049 45 38.0049H42.5L30 20.5049Z" fill="#423F3F"/>
<path d="M26.46 50.5049C24.531 54.9196 20.1258 58.0049 15 58.0049C8.09645 58.0049 2.5 52.4084 2.5 45.5049C2.5 38.6014 8.09645 33.0049 15 33.0049V38.0049C10.8579 38.0049 7.5 41.3626 7.5 45.5049C7.5 49.6471 10.8579 53.0049 15 53.0049C17.2213 53.0049 19.217 52.0394 20.5903 50.5049H26.46Z" fill="#423F3F"/>
</svg>
