<svg width="60" height="61" viewBox="0 0 60 61" fill="none" xmlns="http://www.w3.org/2000/svg">
<path d="M52.5 11.5049V4.00488H47.5V11.5049H40V16.5049H47.5V24.0049H52.5V16.5049H60V11.5049H52.5Z" fill="#423F3F"/>
<path d="M20 11.5049H35V24.0049H12.5V51.5049H47.5V29.0049H52.5V51.5049C52.5 54.2549 50.25 56.5049 47.5 56.5049H12.5C11.1739 56.5049 9.90215 55.9781 8.96447 55.0404C8.02677 54.1026 7.5 52.8309 7.5 51.5049L7.525 16.5049C7.525 13.7549 9.725 11.5049 12.5 11.5049H15V6.50488H20V11.5049Z" fill="#423F3F"/>
<path d="M17.5 29.0049H30V41.5049H17.5V29.0049Z" fill="#423F3F"/>
</svg>
