<svg width="60" height="61" viewBox="0 0 60 61" fill="none" xmlns="http://www.w3.org/2000/svg">
<path d="M30 5.02148C16.2 5.02148 5 16.2215 5 30.0215C5 43.8215 16.2 55.0215 30 55.0215C43.8 55.0215 55 43.8215 55 30.0215C55 16.2215 43.8 5.02148 30 5.02148ZM27.5 49.8465C17.625 48.6215 10 40.2215 10 30.0215C10 28.4715 10.2 26.9965 10.525 25.5465L22.5 37.5215V40.0215C22.5 42.7715 24.75 45.0215 27.5 45.0215V49.8465ZM44.75 43.4965C44.1 41.4715 42.25 40.0215 40 40.0215H37.5V32.5215C37.5 31.1465 36.375 30.0215 35 30.0215H20V25.0215H25C26.375 25.0215 27.5 23.8965 27.5 22.5215V17.5215H32.5C35.25 17.5215 37.5 15.2715 37.5 12.5215V11.4965C44.825 14.4715 50 21.6465 50 30.0215C50 35.2215 48 39.9465 44.75 43.4965Z" fill="#423F3F"/>
</svg>
