<svg width="60" height="61" viewBox="0 0 60 61" fill="none" xmlns="http://www.w3.org/2000/svg">
<path d="M30 5.50488C16.191 5.50488 5 16.6959 5 30.5049C5 44.3139 16.191 55.5049 30 55.5049C43.809 55.5049 55 44.3139 55 30.5049C55 16.6959 43.809 5.50488 30 5.50488ZM30 14.5049C31.1055 14.5049 32 15.3994 32 16.5049V29.3489L41.4063 34.7864C42.3633 35.3371 42.6758 36.5481 42.125 37.5051C41.5743 38.4624 40.3633 38.7746 39.4063 38.2239L29.2183 32.3489C29.14 32.3176 29.0698 32.2669 28.9995 32.2239C28.4018 31.8764 27.9995 31.2434 27.9995 30.5051V16.5051C27.9995 15.3996 28.8945 14.5049 30 14.5049Z" fill="#423F3F"/>
</svg>
