<svg width="60" height="61" viewBox="0 0 60 61" fill="none" xmlns="http://www.w3.org/2000/svg">
<path d="M54.2675 51.2374L40.785 37.7549C43.5075 34.2649 45 30.0024 45 25.5049C45 20.1624 42.9175 15.1399 39.14 11.3649C35.365 7.58488 30.3425 5.50488 25 5.50488C19.6575 5.50488 14.635 7.58488 10.86 11.3649C7.0825 15.1399 5 20.1624 5 25.5049C5 30.8474 7.0825 35.8699 10.86 39.6449C14.635 43.4249 19.6575 45.5049 25 45.5049C29.4975 45.5049 33.76 44.0149 37.25 41.2899L50.7325 54.7699L54.2675 51.2374ZM25 40.5049C20.9925 40.5049 17.2275 38.9449 14.395 36.1124C11.56 33.2799 10 29.5124 10 25.5049C10 21.4999 11.56 17.7324 14.395 14.8999C17.2275 12.0649 20.9925 10.5049 25 10.5049C29.0075 10.5049 32.7725 12.0649 35.605 14.8999C38.44 17.7324 40 21.4999 40 25.5049C40 29.5124 38.44 33.2799 35.605 36.1124C32.7725 38.9449 29.0075 40.5049 25 40.5049Z" fill="#423F3F"/>
</svg>
