<svg width="60" height="61" viewBox="0 0 60 61" fill="none" xmlns="http://www.w3.org/2000/svg">
<path d="M29.9942 5.52148C36.8967 5.52148 42.4942 11.1352 42.4942 18.0633V23.08H17.4941V18.0633C17.4941 11.1352 23.0892 5.52148 29.9942 5.52148ZM26.2442 14.3007C26.2442 16.3802 27.9242 18.0633 29.9942 18.0633C32.0642 18.0633 33.7442 16.3802 33.7442 14.3007C33.7442 12.2213 32.0642 10.5382 29.9942 10.5382C27.9242 10.5382 26.2442 12.2213 26.2442 14.3007ZM57.4942 55.6887H42.4942L47.4942 48.1636V30.6051H42.4942V45.6553C42.4942 47.0424 41.3742 48.1636 39.9942 48.1636H34.9942L37.4942 55.6887H22.4942L24.9942 48.1636H19.9942C18.6141 48.1636 17.4941 47.0424 17.4941 45.6553V30.6051H12.4941V48.1636L17.4941 55.6887H2.49414L7.49414 48.1636V30.6051C7.49414 27.8359 9.73664 25.5884 12.4941 25.5884H47.4942C50.2517 25.5884 52.4942 27.8359 52.4942 30.6051V48.1636L57.4942 55.6887ZM32.4942 35.6218C32.4942 37.0089 33.6142 38.1302 34.9942 38.1302C36.3742 38.1302 37.4942 37.0089 37.4942 35.6218C37.4942 34.2347 36.3742 33.1134 34.9942 33.1134C33.6142 33.1134 32.4942 34.2347 32.4942 35.6218Z" fill="#423F3F"/>
</svg>
