<svg width="60" height="61" viewBox="0 0 60 61" fill="none" xmlns="http://www.w3.org/2000/svg">
<path fill-rule="evenodd" clip-rule="evenodd" d="M30 40.5049C32.7614 40.5049 35 42.7435 35 45.5049C35 48.2663 32.7614 50.5049 30 50.5049C27.2386 50.5049 25 48.2663 25 45.5049C25 42.7435 27.2386 40.5049 30 40.5049ZM30 25.5049C32.7614 25.5049 35 27.7435 35 30.5049C35 33.2663 32.7614 35.5049 30 35.5049C27.2386 35.5049 25 33.2663 25 30.5049C25 27.7435 27.2386 25.5049 30 25.5049ZM30 10.5049C32.7614 10.5049 35 12.7435 35 15.5049C35 18.2663 32.7614 20.5049 30 20.5049C27.2386 20.5049 25 18.2663 25 15.5049C25 12.7435 27.2386 10.5049 30 10.5049Z" fill="#423F3F"/>
</svg>
