<svg width="60" height="61" viewBox="0 0 60 61" fill="none" xmlns="http://www.w3.org/2000/svg">
<path d="M29.9951 35.9741C18.2176 35.9741 9.99512 42.2244 9.99512 51.1755V56.2426H49.9951V51.1755C49.9951 42.2244 41.7726 35.9741 29.9951 35.9741ZM27.4951 48.6419C26.1126 48.6419 24.9951 47.5094 24.9951 46.1084C24.9951 44.7073 26.1126 43.5748 27.4951 43.5748C28.8776 43.5748 29.9951 44.7073 29.9951 46.1084C29.9951 47.5094 28.8776 48.6419 27.4951 48.6419ZM34.9951 48.6419C33.6126 48.6419 32.4951 47.5094 32.4951 46.1084C32.4951 44.7073 33.6126 43.5748 34.9951 43.5748C36.3776 43.5748 37.4951 44.7073 37.4951 46.1084C37.4951 47.5094 36.3776 48.6419 34.9951 48.6419Z" fill="#423F3F"/>
<path d="M44.9951 15.7059H44.7701C43.5751 8.5283 37.4126 3.03809 29.9951 3.03809C22.5776 3.03809 16.4151 8.5283 15.2201 15.7059H14.9951C12.2351 15.7059 9.99512 17.9759 9.99512 20.773V23.3065C9.99512 26.1036 12.2351 28.3736 14.9951 28.3736C14.9951 31.1656 17.2376 33.4408 19.9951 33.4408H39.9951C42.7551 33.4408 44.9951 31.1656 44.9951 28.3736C47.7551 28.3736 49.9951 26.1036 49.9951 23.3065V20.773C49.9951 17.9759 47.7551 15.7059 44.9951 15.7059ZM39.9951 25.8401H19.9951V15.7059H39.9951V25.8401Z" fill="#423F3F"/>
</svg>
