<svg width="60" height="61" viewBox="0 0 60 61" fill="none" xmlns="http://www.w3.org/2000/svg">
<path fill-rule="evenodd" clip-rule="evenodd" d="M51.8178 15.8456L31.1201 4.3469C30.4233 3.96054 29.5815 3.96054 28.8847 4.3469L8.18695 15.8456C7.45793 16.2504 7.00488 17.0185 7.00488 17.8533C7.00488 19.4493 7.26706 56.949 30.0024 56.949C52.7377 56.949 52.9999 19.4493 52.9999 17.8533C52.9999 17.0185 52.5468 16.2504 51.8178 15.8456ZM30.0024 17.8533C33.1783 17.8533 35.7518 20.4267 35.7518 23.6027C35.7518 26.7786 33.1783 29.352 30.0024 29.352C26.8264 29.352 24.253 26.7786 24.253 23.6027C24.253 20.4267 26.8264 17.8533 30.0024 17.8533ZM21.3783 40.8531C21.3783 35.5613 24.7106 32.229 30.0024 32.229C35.2941 32.229 38.6264 35.5613 38.6264 40.8531H21.3783Z" fill="#423F3F"/>
</svg>
