<svg width="61" height="61" viewBox="0 0 61 61" fill="none" xmlns="http://www.w3.org/2000/svg">
<path fill-rule="evenodd" clip-rule="evenodd" d="M18 30.0215C18 27.26 15.7614 25.0215 13 25.0215C10.2386 25.0215 8 27.26 8 30.0215C8 32.7827 10.2386 35.0215 13 35.0215C15.7614 35.0215 18 32.7827 18 30.0215ZM35.5 30.0215C35.5 27.26 33.2615 25.0215 30.5 25.0215C27.7385 25.0215 25.5 27.26 25.5 30.0215C25.5 32.7827 27.7385 35.0215 30.5 35.0215C33.2615 35.0215 35.5 32.7827 35.5 30.0215ZM48 25.0215C50.7615 25.0215 53 27.26 53 30.0215C53 32.7827 50.7615 35.0215 48 35.0215C45.2385 35.0215 43 32.7827 43 30.0215C43 27.26 45.2385 25.0215 48 25.0215Z" fill="#524E4E"/>
</svg>
