<svg width="60" height="61" viewBox="0 0 60 61" fill="none" xmlns="http://www.w3.org/2000/svg">
<path fill-rule="evenodd" clip-rule="evenodd" d="M50 4.77238V11.2374L41.7675 3.00488L38.2325 6.53988L46.465 14.7724H40V19.7724H55V4.77238H50ZM12.5 37.2724H20V22.2723C20 19.5173 22.2425 17.2723 25 17.2723H35V9.77231C35 7.01731 32.7575 4.77231 30 4.77231H12.5C9.7425 4.77231 7.5 7.01731 7.5 9.77231V32.2724C7.5 35.0274 9.7425 37.2724 12.5 37.2724ZM30 22.2723H47.5C50.2575 22.2723 52.5 24.5173 52.5 27.2724V49.7724C52.5 52.5299 50.2575 54.7724 47.5 54.7724H30C27.2425 54.7724 25 52.5299 25 49.7724V27.2724C25 24.5173 27.2425 22.2723 30 22.2723ZM40 32.2724V29.7724H30V32.2724H40ZM30 47.2724H47.5V44.7724H30V47.2724ZM30 39.7724H47.5V37.2724H30V39.7724Z" fill="#423F3F"/>
</svg>
