<svg width="60" height="61" viewBox="0 0 60 61" fill="none" xmlns="http://www.w3.org/2000/svg">
<path d="M46.4951 14.7617C37.8951 14.7617 31.0601 5.69656 30.9926 5.60248C30.0476 4.33107 27.9426 4.33107 26.9976 5.60248C26.9301 5.69656 20.0951 14.7617 11.4951 14.7617C10.1126 14.7617 8.99512 15.9009 8.99512 17.3045V35.1041C8.99512 44.7846 25.9051 54.1192 27.8301 55.1516C28.1951 55.3474 28.5951 55.4415 28.9951 55.4415C29.3951 55.4415 29.7951 55.3449 30.1601 55.1516C32.0851 54.1192 48.9951 44.7846 48.9951 35.1041V17.3045C48.9951 15.9009 47.8776 14.7617 46.4951 14.7617ZM36.4951 40.1897L28.9951 35.1041L21.4951 40.1897L23.9951 32.5613L18.9951 27.4757H26.4951L28.9951 19.8473L31.4951 27.4757H38.9951L33.9951 32.5613L36.4951 40.1897Z" fill="#423F3F"/>
</svg>
