<svg width="60" height="61" viewBox="0 0 60 61" fill="none" xmlns="http://www.w3.org/2000/svg">
<path fill-rule="evenodd" clip-rule="evenodd" d="M51.2147 20.8621C52.0799 20.3421 53.1775 20.3946 53.9901 20.9971C54.8001 21.6021 55.1699 22.6321 54.9276 23.6121L49.9274 43.6123C49.6476 44.7272 48.6475 45.5072 47.5 45.5072H12.4999C11.3524 45.5072 10.3524 44.7246 10.0724 43.6123L5.07242 23.6121C4.82994 22.6321 5.19992 21.6021 6.00992 20.9971C6.82494 20.3971 7.91994 20.3446 8.78743 20.8621L19.2449 27.1371L27.9224 14.1196C27.9817 14.0307 28.0644 13.9719 28.1473 13.913C28.1972 13.8775 28.2473 13.8419 28.2924 13.7996L25.8849 11.3896C25.3999 10.9046 25.3999 10.1071 25.8849 9.62212L29.1174 6.38962C29.6024 5.90463 30.3999 5.90463 30.8849 6.38962L34.1174 9.62212C34.6024 10.1071 34.6024 10.9046 34.1174 11.3896L31.7099 13.7996C31.755 13.8428 31.806 13.879 31.8571 13.9152C31.9391 13.9734 32.0214 14.0318 32.0799 14.1196L40.7575 27.1371L51.2147 20.8621ZM10.0003 48.0069H50.0001V53.0072H10.0003V48.0069Z" fill="#ED9F2E"/>
</svg>
