<svg width="60" height="61" viewBox="0 0 60 61" fill="none" xmlns="http://www.w3.org/2000/svg">
<path fill-rule="evenodd" clip-rule="evenodd" d="M51.8926 25.1049H58V35.9049H51.8953C51.2446 38.4186 50.17 40.7595 48.7255 42.8277L52.6 46.7049L47.2 52.1049L43.3255 48.2277C41.2519 49.6722 38.9164 50.7495 36.4 51.3975V57.5049H25.6V51.3975C23.0863 50.7495 20.7481 49.6722 18.6772 48.2277L14.8 52.1049L9.4 46.7049L13.2772 42.8277C11.8327 40.7622 10.7554 38.4213 10.1074 35.9049H4V25.1049H10.1074C10.7554 22.5885 11.83 20.2503 13.2772 18.1821L9.4 14.3049L14.8 8.90488L18.6772 12.7821C20.7454 11.3349 23.0836 10.2603 25.6 9.61228V3.50488H36.4V9.60958C38.9164 10.2603 41.2519 11.3349 43.3255 12.7794L47.2 8.90218L52.6 14.3022L48.7228 18.1821C50.1673 20.2503 51.2446 22.5912 51.8926 25.1049ZM31 41.3049C36.9646 41.3049 41.8 36.4695 41.8 30.5049C41.8 24.5402 36.9646 19.7049 31 19.7049C25.0353 19.7049 20.2 24.5402 20.2 30.5049C20.2 36.4695 25.0353 41.3049 31 41.3049Z" fill="#423F3F"/>
</svg>
