<svg width="60" height="61" viewBox="0 0 60 61" fill="none" xmlns="http://www.w3.org/2000/svg">
<path fill-rule="evenodd" clip-rule="evenodd" d="M46.5625 7.95459H13.4375C10.163 7.95459 7.5 10.5999 7.5 13.8528V46.7584C7.5 50.0142 10.163 52.6566 13.4375 52.6566H46.5625C49.8398 52.6566 52.5 50.0142 52.5 46.7584V13.8528C52.514 10.6567 49.7993 7.95459 46.5625 7.95459ZM15.1235 28.8281L23.9618 37.4171L44.9139 17.014L48.7499 21.0217L23.9618 45.2062L11.25 32.7835L15.1235 28.8281Z" fill="#5865F2"/>
<path d="M23.9618 37.4171L15.1235 28.8281L11.25 32.7835L23.9618 45.2062L48.7499 21.0217L44.9139 17.014L23.9618 37.4171Z" fill="white"/>
</svg>
