<svg width="60" height="61" viewBox="0 0 60 61" fill="none" xmlns="http://www.w3.org/2000/svg">
<path fill-rule="evenodd" clip-rule="evenodd" d="M38.7505 3.00391H18.7505C15.3005 3.00391 12.5005 5.80391 12.5005 9.25391V51.7539C12.5005 55.2039 15.3005 58.0039 18.7505 58.0039H38.7505C42.2005 58.0039 45.0005 55.2039 45.0005 51.7539V9.25391C45.0005 5.80391 42.2005 3.00391 38.7505 3.00391ZM28.7505 55.5039C26.6755 55.5039 25.0005 53.8289 25.0005 51.7539C25.0005 49.6789 26.6755 48.0039 28.7505 48.0039C30.8255 48.0039 32.5005 49.6789 32.5005 51.7539C32.5005 53.8289 30.8255 55.5039 28.7505 55.5039ZM40.0005 45.5039H17.5005V10.5039H40.0005V45.5039Z" fill="#423F3F"/>
</svg>
