<svg width="60" height="61" viewBox="0 0 60 61" fill="none" xmlns="http://www.w3.org/2000/svg">
<g clip-path="url(#clip0_502_7519)">
<path d="M32.5 0.504883C41.2995 0.504883 48.6055 7.08138 49.822 15.6071C49.8813 15.6061 49.9405 15.6056 50 15.6056C55.5228 15.6056 60 20.1128 60 25.6727C60 27.6126 59.455 29.4244 58.5107 30.9612C54.9518 27.677 50.2085 25.6727 45 25.6727C37.5972 25.6727 31.1338 29.7217 27.6758 35.7398H12.5C5.6075 35.7398 0 30.0947 0 23.1559C0 16.2171 5.6075 10.572 12.5 10.572C15.9825 10.572 19.195 11.7146 22.9375 17.0653L24.98 15.6156C22.545 12.1324 19.9675 10.1064 17.555 8.95371C20.65 3.80186 26.225 0.504883 32.5 0.504883Z" fill="white"/>
<path d="M53.233 44.0245L47.5006 49.7955V35.7367H42.5006V49.7955L36.7681 44.0245L33.2331 47.5832L45.0006 59.4297L56.768 47.5832L53.233 44.0245Z" fill="#2DC775"/>
</g>
<defs>
<clipPath id="clip0_502_7519">
<rect width="60" height="60" fill="white" transform="translate(0 0.0214844)"/>
</clipPath>
</defs>
</svg>
