<svg width="60" height="61" viewBox="0 0 60 61" fill="none" xmlns="http://www.w3.org/2000/svg">
<path d="M30.0053 27.4707L52.4178 13.6102C51.6978 13.2116 50.8853 12.9624 50.0053 12.9624H10.0052C9.12518 12.9624 8.31018 13.2116 7.59268 13.6102L30.0053 27.4707Z" fill="#423F3F"/>
<path d="M31.3234 32.5178C30.9209 32.767 30.4634 32.894 30.0058 32.894C29.5483 32.894 29.0908 32.767 28.6883 32.5203L5.01336 17.8775C5.01336 17.8999 5.00586 17.9223 5.00586 17.9423V40.3662C5.00586 43.1119 7.24836 45.3493 10.0059 45.3493H50.0058C52.7633 45.3493 55.0058 43.1119 55.0058 40.3662V17.9423C55.0058 17.9199 54.9983 17.8974 54.9983 17.875L31.3234 32.5178Z" fill="#423F3F"/>
</svg>
