<svg width="60" height="61" viewBox="0 0 60 61" fill="none" xmlns="http://www.w3.org/2000/svg">
<path d="M49.9987 22.6315L39.4987 21.6481C38.4987 21.6481 37.7487 20.9105 37.4987 20.173L33.4987 10.5849C32.7487 8.61817 29.7487 8.61817 28.9987 10.5849L24.4987 20.4188C24.2487 21.1564 23.4987 21.6481 22.4987 21.8939L11.9987 22.6315C9.74865 22.8773 8.99865 25.5816 10.4987 27.0567L18.4987 33.9404C19.2487 34.4321 19.4987 35.4155 19.2487 36.3989L16.7487 46.4786C16.2487 48.6913 18.4987 50.1664 20.4987 49.183L29.4987 43.7743C30.2487 43.2826 31.2487 43.2826 31.9987 43.7743L40.9987 49.183C42.9987 50.4122 45.2487 48.6913 44.7487 46.4786L42.2487 36.3989C41.9987 35.4155 42.2487 34.678 42.9987 33.9404L50.9987 27.0567C53.2487 25.5816 52.2487 22.8773 49.9987 22.6315ZM30.9987 38.3657L21.4987 44.0202L23.9987 33.4487L15.7487 26.3192L26.7487 25.3358L30.9987 15.5019L35.2487 25.3358L46.2487 26.3192L37.9987 33.4487L40.4987 44.0202L30.9987 38.3657Z" fill="#F7A530"/>
<path d="M30.9987 38.3657L21.4987 44.0202L23.9987 33.4487L15.7487 26.3192L26.7487 25.3358L30.9987 15.5019L35.2487 25.3358L46.2487 26.3192L37.9987 33.4487L40.4987 44.0202L30.9987 38.3657Z" fill="#F7A530"/>
</svg>
