<svg width="60" height="61" viewBox="0 0 60 61" fill="none" xmlns="http://www.w3.org/2000/svg">
<path d="M47.5 10.6382H12.5C11.1739 10.6382 9.90215 11.172 8.96447 12.1223C8.02678 13.0726 7.5 14.3614 7.5 15.7053L7.5 46.108C7.5 47.4519 8.02678 48.7407 8.96447 49.691C9.90215 50.6412 11.1739 51.1751 12.5 51.1751H22.5V46.108H12.5V20.7724H47.5V46.108H37.5V51.1751H47.5C50.25 51.1751 52.5 48.8949 52.5 46.108V15.7053C52.5 14.3614 51.9732 13.0726 51.0355 12.1223C50.0978 11.172 48.8261 10.6382 47.5 10.6382ZM30 25.8395L20 35.9738H27.5V51.1751H32.5V35.9738H40L30 25.8395Z" fill="#423F3F"/>
</svg>
