<svg width="60" height="61" viewBox="0 0 60 61" fill="none" xmlns="http://www.w3.org/2000/svg">
<path fill-rule="evenodd" clip-rule="evenodd" d="M16.2495 5.021C14.1785 5.021 12.4995 6.69995 12.4995 8.771V37.521H8.74951C6.67846 37.521 4.99951 39.2 4.99951 41.2711C4.99951 43.3422 6.67846 45.0211 8.74951 45.0211H12.4995V51.2708C12.4995 53.342 14.1785 55.0208 16.2495 55.0208C18.3206 55.0208 19.9995 53.342 19.9995 51.2708V45.0211H23.7495C25.8206 45.0211 27.4995 43.3422 27.4995 41.2711C27.4995 39.2 25.8206 37.521 23.7495 37.521H19.9995V8.771C19.9995 6.69995 18.3206 5.021 16.2495 5.021ZM39.9994 8.771C39.9994 6.69995 41.6786 5.021 43.7494 5.021C45.8205 5.021 47.4994 6.69995 47.4994 8.771V15.021H51.2494C53.3205 15.021 54.9994 16.6999 54.9994 18.771C54.9994 20.8421 53.3205 22.521 51.2494 22.521H47.4994V51.2708C47.4994 53.342 45.8205 55.0208 43.7494 55.0208C41.6786 55.0208 39.9994 53.342 39.9994 51.2708V22.521H36.2495C34.1784 22.521 32.4995 20.8421 32.4995 18.771C32.4995 16.6999 34.1784 15.021 36.2495 15.021H39.9994V8.771Z" fill="#423F3F"/>
</svg>
