<svg width="60" height="61" viewBox="0 0 60 61" fill="none" xmlns="http://www.w3.org/2000/svg">
<path d="M30 5.50488C16.215 5.50488 5 16.7224 5 30.5049C5 44.2924 16.215 55.5049 30 55.5049C43.785 55.5049 55 44.2924 55 30.5049C55 16.7224 43.785 5.50488 30 5.50488ZM30 46.1299C28.275 46.1299 26.875 44.7324 26.875 43.0049C26.875 41.2799 28.275 39.8799 30 39.8799C31.725 39.8799 33.125 41.2799 33.125 43.0049C33.125 44.7324 31.725 46.1299 30 46.1299ZM32.5 35.1924V38.0049H27.5V30.5049H30C32.76 30.5049 35 28.2624 35 25.5049C35 22.7449 32.76 20.5049 30 20.5049C27.24 20.5049 25 22.7449 25 25.5049H20C20 19.9924 24.4875 15.5049 30 15.5049C35.5125 15.5049 40 19.9924 40 25.5049C40 30.1574 36.8075 34.0774 32.5 35.1924Z" fill="#423F3F"/>
</svg>
