<svg width="60" height="61" viewBox="0 0 60 61" fill="none" xmlns="http://www.w3.org/2000/svg">
<path d="M41.8044 7.02148H24.1059C23.8477 7.02149 23.5952 7.09806 23.3805 7.24153C23.1658 7.38501 22.9985 7.58894 22.8997 7.82751C22.8009 8.06609 22.7751 8.32861 22.8255 8.58187C22.8759 8.83513 23.0003 9.06775 23.1829 9.25032L26.493 12.5604C26.9826 13.0501 27.2578 13.7142 27.2578 14.4067C27.2578 15.0992 26.9826 15.7634 26.493 16.2531L22.8004 19.9459C21.3314 21.415 20.5061 23.4074 20.5061 25.4849C20.5061 27.5624 21.3314 29.5548 22.8004 31.0238C23.29 31.5135 23.9541 31.7886 24.6466 31.7886C25.3391 31.7886 26.0033 31.5135 26.493 31.0238L32.0322 25.4849C33.0115 24.5055 34.3398 23.9554 35.7247 23.9554C37.1099 23.9554 38.4382 24.5055 39.4173 25.4849L40.8811 26.9487C41.0636 27.1313 41.2963 27.2557 41.5496 27.3061C41.8028 27.3565 42.0655 27.3306 42.3039 27.2318C42.5426 27.133 42.7465 26.9657 42.8901 26.751C43.0335 26.5363 43.11 26.2839 43.11 26.0256V8.32704C43.11 7.98078 42.9724 7.64871 42.7277 7.40387C42.4828 7.15903 42.1506 7.02148 41.8044 7.02148Z" fill="#423F3F"/>
<path d="M18.3056 54.0211H36.0042C36.2624 54.0211 36.5149 53.9446 36.7295 53.8012C36.9441 53.6576 37.1115 53.4537 37.2102 53.215C37.3092 52.9766 37.335 52.7139 37.2846 52.4607C37.2342 52.2074 37.1097 51.975 36.9272 51.7922L33.6171 48.4821C33.1275 47.9925 32.8523 47.3283 32.8523 46.6358C32.8523 45.9433 33.1275 45.2793 33.6171 44.7895L37.3097 41.0966C38.7787 39.6276 39.6041 37.6353 39.6041 35.5577C39.6041 33.4803 38.7787 31.4878 37.3097 30.0188C36.8201 29.5292 36.1559 29.2541 35.4634 29.2541C34.7709 29.2541 34.1067 29.5292 33.6171 30.0188L28.0779 35.5577C27.0985 36.5371 25.7703 37.0873 24.3853 37.0873C23.0002 37.0873 21.672 36.5371 20.6926 35.5577L19.2289 34.0939C19.0463 33.9114 18.8136 33.7871 18.5604 33.7367C18.3071 33.6863 18.0446 33.7119 17.806 33.8108C17.5674 33.9095 17.3635 34.0769 17.22 34.2915C17.0766 34.5064 17 34.7587 17 35.0169V52.7155C17 53.0617 17.1376 53.3939 17.3824 53.6388C17.6272 53.8837 17.9593 54.0211 18.3056 54.0211Z" fill="#423F3F"/>
</svg>
