<svg width="60" height="61" viewBox="0 0 60 61" fill="none" xmlns="http://www.w3.org/2000/svg">
<path fill-rule="evenodd" clip-rule="evenodd" d="M29.8462 5.38429C28.9824 7.0545 27.3333 10.3949 27.3333 11.8015C27.3333 12.7107 27.6559 13.5827 28.2302 14.2257C28.8045 14.8686 29.5836 15.2298 30.3958 15.2298C31.208 15.2298 31.9869 14.8686 32.5612 14.2257C33.1357 13.5827 33.4583 12.7107 33.4583 11.8015C33.4583 10.3949 31.8879 7.0545 30.9454 5.38427C30.8911 5.27437 30.8115 5.18274 30.7149 5.11893C30.6182 5.05513 30.5079 5.02148 30.3958 5.02148C30.2835 5.02148 30.1735 5.05513 30.0767 5.11893C29.9801 5.18274 29.9005 5.27437 29.8462 5.38429Z" fill="#FDFE3C"/>
<path fill-rule="evenodd" clip-rule="evenodd" d="M12.2184 30.417C11.8494 30.5689 11.5353 30.8295 11.3178 31.1641C11.1003 31.4987 10.9897 31.8915 11.0008 32.2905V52.0214C11.0008 53.1259 11.8962 54.0214 13.0008 54.0214H45.4703C46.4685 53.8713 47.3792 53.3682 48.0379 52.6034C48.6964 51.8385 49.0585 50.8627 49.0585 49.8533C49.0585 48.844 48.6964 47.8682 48.0379 47.1033C47.3793 46.3384 46.4682 45.8352 45.4701 45.6852L45.4703 30.8854C45.4703 30.6044 45.3768 30.3233 45.3768 30.0424C45.1643 27.6659 44.062 25.4574 42.2902 23.8595C40.5185 22.2615 38.2083 21.3919 35.8226 21.425C35.024 21.439 34.231 21.5425 33.4583 21.7326V20.6759C33.4583 18.9845 32.0871 17.6134 30.3958 17.6134C28.7045 17.6134 27.3333 18.9845 27.3333 20.6759V24.143L12.2184 30.417ZM39.7357 26.6099C38.659 25.6548 37.2615 25.1412 35.8226 25.1717C35.02 25.1831 34.2263 25.3419 33.481 25.6401L33.4583 25.6496V27.8883C33.4583 29.5796 32.0871 30.9508 30.3958 30.9508C28.8048 30.9508 27.497 29.7373 27.3476 28.1855L18.1322 32.0098H41.7236V30.8854C41.7373 30.6932 41.7052 30.5006 41.6299 30.3233C41.4888 28.8911 40.8123 27.5649 39.7357 26.6099ZM15.3097 48.8699H33.4812C33.7599 48.8702 34.0357 48.814 34.292 48.7045C34.5483 48.5952 34.7798 48.4351 34.9724 48.2337C35.1652 48.0322 35.3148 47.7939 35.4128 47.533C35.5106 47.272 35.5545 46.994 35.5419 46.7155C35.499 46.1832 35.2683 45.6836 34.8906 45.3061C34.5131 44.9284 34.0135 44.6977 33.4812 44.6548H15.3097V48.8699ZM15.3097 40.6272H33.4812C34.0278 40.6272 34.5519 40.41 34.9383 40.0235C35.3248 39.6372 35.5419 39.1129 35.5419 38.5664C35.5604 38.2824 35.5104 37.9982 35.3965 37.7373C35.2824 37.4765 35.1074 37.2471 34.8863 37.0678C34.7087 36.869 34.4925 36.7084 34.2509 36.5958C34.0094 36.483 33.7476 36.4206 33.4812 36.4122H15.3097V40.6272Z" fill="#FDFE3C"/>
</svg>
