<svg width="60" height="61" viewBox="0 0 60 61" fill="none" xmlns="http://www.w3.org/2000/svg">
<path d="M28.8 56.3271C25.6174 56.3271 22.5652 55.0701 20.3147 52.8324C18.0643 50.5948 16.8 47.5598 16.8 44.3953C16.8 41.2308 18.0643 38.1959 20.3147 35.9583C22.5652 33.7206 25.6174 32.4635 28.8 32.4635C31.9826 32.4635 35.0348 33.7206 37.2853 35.9583C39.5357 38.1959 40.8 41.2308 40.8 44.3953C40.8 47.5598 39.5357 50.5948 37.2853 52.8324C35.0348 55.0701 31.9826 56.3271 28.8 56.3271ZM28.8 49.1681C30.073 49.1681 31.2939 48.6652 32.1941 47.7702C33.0943 46.8751 33.6 45.6611 33.6 44.3953C33.6 43.1295 33.0943 41.9156 32.1941 41.0205C31.2939 40.1254 30.073 39.6226 28.8 39.6226C27.527 39.6226 26.3061 40.1254 25.4059 41.0205C24.5057 41.9156 24 43.1295 24 44.3953C24 45.6611 24.5057 46.8751 25.4059 47.7702C26.3061 48.6652 27.527 49.1681 28.8 49.1681ZM39.6 39.6226H60V47.9749H56.4V56.3271H48V47.9749H39.6V39.6226ZM6 3.82715H49.2C52.8 3.82715 55.2 6.21351 55.2 9.79306V37.2362H49.2V13.3726C49.2 10.9862 48 9.79306 45.6 9.79306H9.6C7.2 9.79306 6 10.9862 6 13.3726V38.4294C6 40.8158 7.2 42.009 9.6 42.009H12.12C11.88 44.3953 12 46.0658 12.36 47.9749H6C2.4 47.9749 0 45.5885 0 42.009V9.79306C0 6.21351 2.4 3.82715 6 3.82715ZM15.6 15.759H39.6C42 15.759 44.4 18.1453 44.4 20.5317V36.0431H43.32C36.48 24.4692 20.28 25.4237 14.28 36.0431C12 36.0431 10.8 33.6567 10.8 31.2703V20.5317C10.8 18.1453 13.2 15.759 15.6 15.759Z" fill="#949BA4"/>
</svg>
