<svg width="60" height="61" viewBox="0 0 60 61" fill="none" xmlns="http://www.w3.org/2000/svg">
<g clip-path="url(#clip0_1734_981)">
<path d="M6 60.0215L0 54.0215L20.4 33.6215L26.4 39.6215L6 60.0215ZM38.4 48.0215H44.4L60 32.4215V26.4215L33.6 0.0214844H27.6L12 15.6215V21.6215L38.4 48.0215ZM51.6 13.2215C51.8364 13.4579 52.117 13.6454 52.4258 13.7733C52.7347 13.9012 53.0657 13.9671 53.4 13.9671C53.7343 13.9671 54.0653 13.9012 54.3742 13.7733C54.683 13.6454 54.9636 13.4579 55.2 13.2215C55.4364 12.9851 55.6239 12.7045 55.7518 12.3956C55.8797 12.0868 55.9456 11.7558 55.9456 11.4215C55.9456 11.0872 55.8797 10.7562 55.7518 10.4473C55.6239 10.1385 55.4364 9.85786 55.2 9.62148L50.4 4.82148C49.9226 4.34409 49.2751 4.0759 48.6 4.0759C47.9249 4.0759 47.2774 4.34409 46.8 4.82148C46.3226 5.29887 46.0544 5.94635 46.0544 6.62148C46.0544 7.29662 46.3226 7.94409 46.8 8.42148L51.6 13.2215Z" fill="#F43E44"/>
</g>
<defs>
<clipPath id="clip0_1734_981">
<rect width="60" height="60" fill="white" transform="translate(0 0.0214844)"/>
</clipPath>
</defs>
</svg>
