<svg width="60" height="61" viewBox="0 0 60 61" fill="none" xmlns="http://www.w3.org/2000/svg">
<g clip-path="url(#clip0_1734_725)">
<path d="M8.18182 0.0214844H19.0909C24.5455 0.0214844 27.2727 2.74876 27.2727 8.2033V19.1124C27.2727 24.5669 24.5455 27.2942 19.0909 27.2942H8.18182C2.72727 27.2942 0 24.5669 0 19.1124V8.2033C0 2.74876 2.72727 0.0214844 8.18182 0.0214844ZM32.7273 13.6578C32.7273 17.2744 34.164 20.7429 36.7213 23.3002C39.2786 25.8575 42.747 27.2942 46.3636 27.2942C49.9802 27.2942 53.4487 25.8575 56.006 23.3002C58.5633 20.7429 60 17.2744 60 13.6578C60 10.0413 58.5633 6.5728 56.006 4.01548C53.4487 1.45817 49.9802 0.0214844 46.3636 0.0214844C42.747 0.0214844 39.2786 1.45817 36.7213 4.01548C34.164 6.5728 32.7273 10.0413 32.7273 13.6578ZM13.6364 32.7488C10.0198 32.7488 6.55131 34.1854 3.994 36.7428C1.43668 39.3001 0 42.7685 0 46.3851C0 50.0017 1.43668 53.4702 3.994 56.0275C6.55131 58.5848 10.0198 60.0215 13.6364 60.0215C17.253 60.0215 20.7214 58.5848 23.2787 56.0275C25.836 53.4702 27.2727 50.0017 27.2727 46.3851C27.2727 42.7685 25.836 39.3001 23.2787 36.7428C20.7214 34.1854 17.253 32.7488 13.6364 32.7488ZM46.3636 32.7488C42.747 32.7488 39.2786 34.1854 36.7213 36.7428C34.164 39.3001 32.7273 42.7685 32.7273 46.3851C32.7273 50.0017 34.164 53.4702 36.7213 56.0275C39.2786 58.5848 42.747 60.0215 46.3636 60.0215C49.9802 60.0215 53.4487 58.5848 56.006 56.0275C58.5633 53.4702 60 50.0017 60 46.3851C60 42.7685 58.5633 39.3001 56.006 36.7428C53.4487 34.1854 49.9802 32.7488 46.3636 32.7488Z" fill="#949BA4"/>
</g>
<defs>
<clipPath id="clip0_1734_725">
<rect width="60" height="60" fill="white" transform="translate(0 0.0214844)"/>
</clipPath>
</defs>
</svg>
