<svg width="60" height="61" viewBox="0 0 60 61" fill="none" xmlns="http://www.w3.org/2000/svg">
<path d="M23.3333 30.0215C26.2802 30.0215 29.1063 28.8362 31.1901 26.7264C33.2738 24.6167 34.4444 21.7552 34.4444 18.7715C34.4444 15.7878 33.2738 12.9263 31.1901 10.8165C29.1063 8.70675 26.2802 7.52148 23.3333 7.52148C20.3865 7.52148 17.5603 8.70675 15.4766 10.8165C13.3929 12.9263 12.2222 15.7878 12.2222 18.7715C12.2222 21.7552 13.3929 24.6167 15.4766 26.7264C17.5603 28.8362 20.3865 30.0215 23.3333 30.0215ZM46.6667 52.5215V45.7715C38.8889 33.3965 7.77778 33.3965 0 45.7715V52.5215H46.6667ZM44.4444 34.5215L42.2222 32.2715L48.8889 25.5215L42.2222 18.7715L44.4444 16.5215L51.1111 23.2715L57.7778 16.5215L60 18.7715L53.3333 25.5215L60 32.2715L57.7778 34.5215L51.1111 27.7715L44.4444 34.5215Z" fill="#F43E44"/>
</svg>
