<svg width="60" height="61" viewBox="0 0 60 61" fill="none" xmlns="http://www.w3.org/2000/svg">
<path d="M58.9481 27.7262C58.7966 23.9396 57.9008 20.2198 56.3117 16.7793C54.7227 13.3389 52.4716 10.2451 49.6869 7.67458C44.0629 2.48327 36.6071 -0.261334 28.9596 0.0445677C21.3121 0.350469 14.0993 3.68181 8.90797 9.30574C3.71665 14.9297 0.972065 22.3855 1.27797 30.033C1.27797 48.4875 17.4256 60.0215 28.9596 60.0215C35.88 60.0215 38.1868 57.7147 33.5732 50.7943C30.4975 46.1807 33.5732 43.8739 42.8005 43.8739C52.0277 43.8739 58.9481 36.9534 58.9481 27.7262ZM17.4256 25.4194C17.4256 26.9489 16.818 28.4158 15.7365 29.4973C14.6549 30.5788 13.1881 31.1864 11.6586 31.1864C10.1291 31.1864 8.66219 30.5788 7.58067 29.4973C6.49915 28.4158 5.89155 26.9489 5.89155 25.4194C5.89155 23.8899 6.49915 22.4231 7.58067 21.3415C8.66219 20.26 10.1291 19.6524 11.6586 19.6524C13.1881 19.6524 14.6549 20.26 15.7365 21.3415C16.818 22.4231 17.4256 23.8899 17.4256 25.4194ZM26.6528 11.5786C26.6528 13.1081 26.0452 14.575 24.9637 15.6565C23.8822 16.738 22.4153 17.3456 20.8858 17.3456C19.3563 17.3456 17.8894 16.738 16.8079 15.6565C15.7264 14.575 15.1188 13.1081 15.1188 11.5786C15.1188 10.0491 15.7264 8.58222 16.8079 7.5007C17.8894 6.41917 19.3563 5.81158 20.8858 5.81158C22.4153 5.81158 23.8822 6.41917 24.9637 7.5007C26.0452 8.58222 26.6528 10.0491 26.6528 11.5786ZM45.1072 11.5786C45.1072 13.1081 44.4997 14.575 43.4181 15.6565C42.3366 16.738 40.8698 17.3456 39.3403 17.3456C37.8107 17.3456 36.3439 16.738 35.2624 15.6565C34.1808 14.575 33.5732 13.1081 33.5732 11.5786C33.5732 10.0491 34.1808 8.58222 35.2624 7.5007C36.3439 6.41917 37.8107 5.81158 39.3403 5.81158C40.8698 5.81158 42.3366 6.41917 43.4181 7.5007C44.4997 8.58222 45.1072 10.0491 45.1072 11.5786ZM54.3345 25.4194C54.3345 26.9489 53.7269 28.4158 52.6454 29.4973C51.5638 30.5788 50.0969 31.1864 48.5674 31.1864C47.0379 31.1864 45.5711 30.5788 44.4895 29.4973C43.408 28.4158 42.8005 26.9489 42.8005 25.4194C42.8005 23.8899 43.408 22.4231 44.4895 21.3415C45.5711 20.26 47.0379 19.6524 48.5674 19.6524C50.0969 19.6524 51.5638 20.26 52.6454 21.3415C53.7269 22.4231 54.3345 23.8899 54.3345 25.4194Z" fill="#949BA4"/>
</svg>
