<svg width="60" height="61" viewBox="0 0 60 61" fill="none" xmlns="http://www.w3.org/2000/svg">
<path d="M51.7241 25.3146C51.7241 19.0043 49.2174 12.9524 44.7553 8.49032C40.2932 4.02825 34.2414 1.52148 27.931 1.52148C21.6207 1.52148 15.5688 4.02825 11.1068 8.49032C6.64469 12.9524 4.13792 19.0043 4.13792 25.3146C4.13792 29.4525 4.82758 32.9008 6.20689 35.6594C2.06896 38.418 0 41.1767 0 43.9353C0 45.3146 1.3793 46.0042 4.13792 46.0042H18.6207C14.4828 29.4525 33.1034 12.9008 51.7241 25.3146Z" fill="#949BA4"/>
<path d="M55.8621 41.8663C55.8621 37.4765 54.1182 33.2665 51.0142 30.1625C47.9101 27.0584 43.7001 25.3146 39.3103 25.3146C34.9206 25.3146 30.7106 27.0584 27.6065 30.1625C24.5025 33.2665 22.7586 37.4765 22.7586 41.8663C22.7586 46.2561 24.5025 50.4661 27.6065 53.5702C30.7106 56.6742 34.9206 58.418 39.3103 58.418H55.8621C58.6207 58.418 60 57.7284 60 56.3491C60 53.7431 58.1536 51.1371 54.4609 48.5311C55.3762 46.4504 55.8621 44.1834 55.8621 41.8663Z" fill="#949BA4"/>
</svg>
