<svg width="60" height="61" viewBox="0 0 60 61" fill="none" xmlns="http://www.w3.org/2000/svg">
<g clip-path="url(#clip0_1734_979)">
<path d="M51.6 32.7488C55.2 34.5669 57 37.2942 57 40.9306V51.8397H3V40.9306C3 37.2942 4.8 34.5669 8.4 32.7488H51.6ZM51.6 60.0215C52.3161 60.0215 53.0028 59.7341 53.5092 59.2227C54.0155 58.7112 54.3 58.0175 54.3 57.2942C54.3 56.5709 54.0155 55.8772 53.5092 55.3657C53.0028 54.8543 52.3161 54.5669 51.6 54.5669H8.4C7.68392 54.5669 6.99716 54.8543 6.49081 55.3657C5.98446 55.8772 5.7 56.5709 5.7 57.2942C5.7 58.0175 5.98446 58.7112 6.49081 59.2227C6.99716 59.7341 7.68392 60.0215 8.4 60.0215H51.6ZM38.1 30.0215V19.1124C38.1 13.6578 43.5 10.9306 43.5 5.47603C43.5 2.74876 40.8 0.0214844 38.1 0.0214844H21.9C19.2 0.0214844 16.5 2.74876 16.5 5.47603C16.5 10.9306 21.9 13.6578 21.9 19.1124V30.0215H38.1Z" fill="#949BA4"/>
</g>
<defs>
<clipPath id="clip0_1734_979">
<rect width="60" height="60" fill="white" transform="translate(0 0.0214844)"/>
</clipPath>
</defs>
</svg>
