<svg width="60" height="61" viewBox="0 0 60 61" fill="none" xmlns="http://www.w3.org/2000/svg">
<path d="M30 60.0215C37.9565 60.0215 45.5871 56.8608 51.2132 51.2347C56.8393 45.6086 60 37.978 60 30.0215C60 22.065 56.8393 14.4344 51.2132 8.80828C45.5871 3.18219 37.9565 0.0214844 30 0.0214844C22.0435 0.0214844 14.4129 3.18219 8.7868 8.80828C3.16071 14.4344 0 22.065 0 30.0215C0 37.978 3.16071 45.6086 8.7868 51.2347C14.4129 56.8608 22.0435 60.0215 30 60.0215ZM30 54.0215C23.6348 54.0215 17.5303 51.4929 13.0294 46.9921C8.52856 42.4912 6 36.3867 6 30.0215C6 23.6563 8.52856 17.5518 13.0294 13.0509C17.5303 8.55005 23.6348 6.02148 30 6.02148C36.3652 6.02148 42.4697 8.55005 46.9706 13.0509C51.4714 17.5518 54 23.6563 54 30.0215C54 36.3867 51.4714 42.4912 46.9706 46.9921C42.4697 51.4929 36.3652 54.0215 30 54.0215ZM30 20.4215C31.273 20.4215 32.4939 19.9158 33.3941 19.0156C34.2943 18.1154 34.8 16.8945 34.8 15.6215C34.8 14.3484 34.2943 13.1275 33.3941 12.2274C32.4939 11.3272 31.273 10.8215 30 10.8215C28.727 10.8215 27.5061 11.3272 26.6059 12.2274C25.7057 13.1275 25.2 14.3484 25.2 15.6215C25.2 16.8945 25.7057 18.1154 26.6059 19.0156C27.5061 19.9158 28.727 20.4215 30 20.4215ZM32.4 39.6215L34.8 48.0215C36 50.4215 39.6 49.2215 38.4 45.6215L36 36.0215C35.2 32.0215 34.8 29.2215 34.8 27.6215L43.2 24.0215C46.8 22.8215 45.6 18.0215 42 19.2215L36 21.6215C32 23.2215 28 23.2215 24 21.6215L18 19.2215C14.4 18.0215 13.2 22.8215 16.8 24.0215L25.2 27.6215C25.2 29.2215 24.8 32.0215 24 36.0215L21.6 45.6215C20.4 49.2215 24 50.4215 25.2 48.0215L27.6 39.6215C28.8 36.0215 31.2 36.0215 32.4 39.6215Z" fill="#949BA4"/>
</svg>
