<svg width="60" height="61" viewBox="0 0 60 61" fill="none" xmlns="http://www.w3.org/2000/svg">
<g clip-path="url(#clip0_1702_39)">
<path d="M29.9999 55.0213C43.807 55.0213 54.9998 43.8284 54.9998 30.0214C54.9998 16.2143 43.807 5.02148 29.9999 5.02148C16.1928 5.02148 5 16.2143 5 30.0214C5 43.8284 16.1928 55.0213 29.9999 55.0213Z" fill="#FFDE4D"/>
<path d="M32.375 31.6587H7.91257C3.70141 31.6587 0.287598 35.0725 0.287598 39.2837C0.287598 43.4948 3.70141 46.9086 7.91257 46.9086H32.375C36.5861 46.9086 39.9999 43.4948 39.9999 39.2837C39.9999 35.0725 36.5861 31.6587 32.375 31.6587Z" fill="#4F81FF"/>
<path d="M20.1372 43.2837C22.3463 43.2837 24.1372 41.4928 24.1372 39.2837C24.1372 37.0745 22.3463 35.2837 20.1372 35.2837C17.9281 35.2837 16.1372 37.0745 16.1372 39.2837C16.1372 41.4928 17.9281 43.2837 20.1372 43.2837Z" fill="#F2F3F4"/>
<path d="M8.49998 43.2837C10.7091 43.2837 12.5 41.4928 12.5 39.2837C12.5 37.0745 10.7091 35.2837 8.49998 35.2837C6.29085 35.2837 4.5 37.0745 4.5 39.2837C4.5 41.4928 6.29085 43.2837 8.49998 43.2837Z" fill="#BED3FF"/>
<path d="M31.7876 43.2837C33.9967 43.2837 35.7876 41.4928 35.7876 39.2837C35.7876 37.0745 33.9967 35.2837 31.7876 35.2837C29.5785 35.2837 27.7876 37.0745 27.7876 39.2837C27.7876 41.4928 29.5785 43.2837 31.7876 43.2837Z" fill="#BED3FF"/>
<path d="M53.7499 13.7715H33.6875C30.2357 13.7715 27.4375 16.5697 27.4375 20.0215C27.4375 23.4732 30.2357 26.2714 33.6875 26.2714H53.7499C57.2017 26.2714 59.9999 23.4732 59.9999 20.0215C59.9999 16.5697 57.2017 13.7715 53.7499 13.7715Z" fill="#F47FFF"/>
<path d="M43.8124 24.2464V16.1214H41.7874V19.1964H38.9749V16.1214H36.9624V24.2464H38.9749V20.9464H41.7874V24.2464H43.8124ZM47.0999 16.7464C47.0999 16.4779 46.9932 16.2203 46.8033 16.0304C46.6134 15.8406 46.3559 15.7339 46.0874 15.7339C45.8188 15.7339 45.5613 15.8406 45.3714 16.0304C45.1815 16.2203 45.0749 16.4779 45.0749 16.7464C45.0749 17.0149 45.1815 17.2724 45.3714 17.4623C45.5613 17.6522 45.8188 17.7589 46.0874 17.7589C46.3559 17.7589 46.6134 17.6522 46.8033 17.4623C46.9932 17.2724 47.0999 17.0149 47.0999 16.7464ZM46.9749 24.2464V18.4839H45.1874V24.2464H46.9749ZM50.4623 16.1214H48.2624L48.8374 21.4464L49.9123 21.2089L50.4623 16.1214ZM50.3123 24.2464V22.2214H48.3999V24.2464H50.3123Z" fill="#F2F3F4"/>
</g>
<defs>
<clipPath id="clip0_1702_39">
<rect width="59.9998" height="59.9998" fill="white" transform="translate(0 0.0214844)"/>
</clipPath>
</defs>
</svg>
