<svg width="60" height="61" viewBox="0 0 60 61" fill="none" xmlns="http://www.w3.org/2000/svg">
<g clip-path="url(#clip0_1702_41)">
<path d="M30 55.0215C43.8071 55.0215 55 43.8286 55 30.0215C55 16.2144 43.8071 5.02148 30 5.02148C16.1929 5.02148 5 16.2144 5 30.0215C5 43.8286 16.1929 55.0215 30 55.0215Z" fill="#F47FFF"/>
<path d="M49.35 21.3215C55.2318 21.3215 60 16.5533 60 10.6715C60 4.78965 55.2318 0.0214844 49.35 0.0214844C43.4681 0.0214844 38.7 4.78965 38.7 10.6715C38.7 16.5533 43.4681 21.3215 49.35 21.3215Z" fill="#83DDC5"/>
<path d="M49.3501 5.62158V15.3216" stroke="white" stroke-width="3.325" stroke-miterlimit="10" stroke-linecap="round"/>
<path d="M54.2 10.4717H44.5" stroke="white" stroke-width="3.325" stroke-miterlimit="10" stroke-linecap="round"/>
<path d="M41.2501 41.1342C41.2501 36.3717 38.8251 32.3092 35.4126 30.6967C36.4878 30.1509 37.3581 29.2727 37.8941 28.1926C38.4301 27.1125 38.6032 25.8883 38.3876 24.702C38.172 23.5156 37.5793 22.4306 36.6975 21.6081C35.8158 20.7857 34.6922 20.2698 33.4937 20.1372C32.2953 20.0046 31.086 20.2623 30.0458 20.8721C29.0056 21.4818 28.19 22.4111 27.7202 23.5216C27.2505 24.6321 27.1517 25.8645 27.4386 27.0356C27.7255 28.2068 28.3828 29.254 29.3126 30.0217C26.8782 30.0566 24.5066 29.2484 22.6001 27.7342C21.2238 26.4853 20.3859 24.7511 20.2626 22.8967C20.2626 22.1541 19.9676 21.4419 19.4425 20.9168C18.9174 20.3917 18.2052 20.0967 17.4626 20.0967C16.72 20.0967 16.0078 20.3917 15.4827 20.9168C14.9576 21.4419 14.6626 22.1541 14.6626 22.8967C14.7972 26.301 16.2654 29.5157 18.7501 31.8467C20.4151 33.3322 22.4129 34.3954 24.5751 34.9467C23.5608 36.8505 23.0367 38.977 23.0501 41.1342H41.2501Z" fill="white"/>
</g>
<defs>
<clipPath id="clip0_1702_41">
<rect width="60" height="60" fill="white" transform="translate(0 0.0214844)"/>
</clipPath>
</defs>
</svg>
