<svg width="60" height="61" viewBox="0 0 60 61" fill="none" xmlns="http://www.w3.org/2000/svg">
<path d="M30 55.0215C43.8071 55.0215 55 43.8286 55 30.0215C55 16.2144 43.8071 5.02148 30 5.02148C16.1929 5.02148 5 16.2144 5 30.0215C5 43.8286 16.1929 55.0215 30 55.0215Z" fill="#83DDC5"/>
<path d="M40.675 30.334L39.3125 28.984C39.1487 28.8209 39.0245 28.6224 38.9494 28.4038C38.8743 28.1852 38.8503 27.9522 38.8793 27.7229C38.9083 27.4935 38.9894 27.2739 39.1165 27.0808C39.2436 26.8877 39.4133 26.7263 39.6125 26.609C41.2731 25.6269 42.8419 24.4974 44.3 23.234C45.0045 22.5296 45.4003 21.5741 45.4003 20.5778C45.4003 19.5815 45.0045 18.626 44.3 17.9215C43.5955 17.2171 42.64 16.8213 41.6437 16.8213C40.6475 16.8213 39.692 17.2171 38.9875 17.9215C37.7131 19.3737 36.5788 20.9432 35.6 22.609C35.48 22.8054 35.317 22.9721 35.1234 23.0965C34.9298 23.221 34.7106 23.3 34.4821 23.3277C34.2536 23.3553 34.0218 23.3309 33.8041 23.2562C33.5864 23.1816 33.3884 23.0586 33.225 22.8965L31.875 21.5465C31.0593 20.7313 29.9532 20.2734 28.8 20.2734C27.6468 20.2734 26.5407 20.7313 25.725 21.5465L23.3125 23.9465L38.3125 38.9465L40.725 36.5465C41.1303 36.1357 41.4506 35.6489 41.6675 35.1141C41.8843 34.5793 41.9936 34.007 41.989 33.4299C41.9843 32.8528 41.8659 32.2823 41.6404 31.7511C41.4149 31.2198 41.0869 30.7383 40.675 30.334Z" fill="white"/>
<path d="M19.4377 27.8213C19.0776 28.1616 18.6537 28.4271 18.1905 28.6026C17.7272 28.7782 17.2338 28.8602 16.7387 28.8439C16.2436 28.8276 15.7566 28.7134 15.3058 28.5078C14.8551 28.3023 14.4496 28.0095 14.1127 27.6463L13.3627 26.8963C13.2535 26.7957 13.1097 26.7412 12.9613 26.7442C12.8128 26.7472 12.6713 26.8075 12.5664 26.9125C12.4614 27.0175 12.4011 27.159 12.3981 27.3074C12.395 27.4558 12.4495 27.5996 12.5502 27.7088L12.9502 28.1213L15.8002 30.9713L16.0502 31.2213L26.6377 41.8088C27.2097 42.3878 27.8909 42.8475 28.6419 43.1612C29.3929 43.475 30.1988 43.6365 31.0127 43.6365C31.8266 43.6365 32.6324 43.475 33.3834 43.1612C34.1344 42.8475 34.8156 42.3878 35.3877 41.8088L39.0002 38.1963L24.0002 23.1963L19.4377 27.8213Z" fill="#4F81FF"/>
<path d="M41.35 22.3592C42.1646 22.3592 42.825 21.6988 42.825 20.8842C42.825 20.0696 42.1646 19.4092 41.35 19.4092C40.5354 19.4092 39.875 20.0696 39.875 20.8842C39.875 21.6988 40.5354 22.3592 41.35 22.3592Z" fill="#83DDC5"/>
<path d="M22.8379 52.9715C22.8743 53.755 22.7514 54.5377 22.4767 55.2723C22.2019 56.007 21.781 56.6783 21.2395 57.2456C20.6979 57.8129 20.0468 58.2645 19.3257 58.573C18.6047 58.8816 17.8285 59.0407 17.0441 59.0407C16.2598 59.0407 15.4836 58.8816 14.7625 58.573C14.0414 58.2645 13.3904 57.8129 12.8488 57.2456C12.3072 56.6783 11.8864 56.007 11.6116 55.2723C11.3369 54.5377 11.214 53.755 11.2504 52.9715C11.2504 49.7715 17.0504 42.834 17.0504 42.834C17.0504 42.834 22.8379 49.7715 22.8379 52.9715Z" fill="#4F81FF"/>
</svg>
