<svg width="60" height="61" viewBox="0 0 60 61" fill="none" xmlns="http://www.w3.org/2000/svg">
<g clip-path="url(#clip0_1702_40)">
<mask id="mask0_1702_40" style="mask-type:luminance" maskUnits="userSpaceOnUse" x="0" y="0" width="60" height="61">
<path d="M60 0.0214844H0V60.0215H60V0.0214844Z" fill="white"/>
</mask>
<g mask="url(#mask0_1702_40)">
<path d="M28.5718 55.2544C41.7213 55.2544 52.3812 44.5957 52.3812 31.4476C52.3812 18.2993 41.7213 7.64062 28.5718 7.64062C15.4221 7.64062 4.76221 18.2993 4.76221 31.4476C4.76221 44.5957 15.4221 55.2544 28.5718 55.2544Z" fill="#5865F2"/>
<path d="M50.4108 43.6727L42.9609 35.1606L41.0099 26.7568L19.6338 39.777C19.6338 39.777 22.1149 43.8944 25.1298 44.9633C26.4578 45.4237 27.8529 45.6604 29.2585 45.6641L37.7984 55.409C38.2634 55.9095 38.8226 56.3134 39.4439 56.5977C40.0652 56.882 40.7365 57.041 41.4194 57.0655C42.1022 57.0901 42.7832 56.9798 43.4234 56.7411C44.0635 56.5023 44.6504 56.1396 45.1502 55.6738L50.1229 51.0303C51.1338 50.0911 51.7315 48.7897 51.7855 47.411C51.8394 46.0321 51.3451 44.6881 50.4108 43.6727Z" fill="#66BCFF"/>
<path d="M38.3955 16.1955L39.6061 13.959L46.5721 17.6105L45.3698 19.8445L38.3955 16.1955Z" fill="#898989"/>
<path d="M43.3325 19.792C43.3031 19.6974 43.3002 19.5966 43.3242 19.5003L44.1785 16.1244C44.2152 15.9857 44.3045 15.8664 44.4275 15.792C44.5505 15.7174 44.6978 15.6934 44.8379 15.725C44.9774 15.7611 45.0965 15.8507 45.1698 15.9741C45.2429 16.0977 45.2642 16.2451 45.2289 16.3844L44.3746 19.7603C44.3379 19.899 44.2486 20.0181 44.1255 20.0927C44.0025 20.1673 43.8554 20.1913 43.7151 20.1597C43.6251 20.1361 43.5426 20.09 43.4758 20.0256C43.4088 19.9613 43.3594 19.8809 43.3325 19.792Z" fill="#ADACAC"/>
<path d="M39.8496 18.0119C39.8162 17.918 39.8133 17.8159 39.8415 17.7202L40.6958 14.3443C40.7122 14.2755 40.7422 14.2107 40.7839 14.1534C40.8255 14.0962 40.8782 14.0478 40.9388 14.0109C40.9992 13.974 41.0665 13.9494 41.1365 13.9385C41.2065 13.9276 41.278 13.9307 41.3468 13.9475C41.487 13.9818 41.6079 14.0702 41.6828 14.1933C41.7576 14.3164 41.7805 14.4643 41.746 14.6043L40.8919 17.9802C40.8553 18.1192 40.7653 18.2382 40.6413 18.3114C40.5173 18.3847 40.3693 18.4062 40.2298 18.3712C40.14 18.3503 40.0576 18.3062 39.9908 18.243C39.924 18.1797 39.8753 18.1 39.8496 18.0119Z" fill="#ADACAC"/>
<path d="M41.5873 18.9038C41.558 18.8091 41.5551 18.7082 41.5791 18.6121L42.4334 15.2362C42.4701 15.0975 42.5594 14.9782 42.6824 14.9037C42.8054 14.8292 42.9525 14.8052 43.0928 14.8368C43.2321 14.8728 43.3514 14.9624 43.4245 15.086C43.4978 15.2095 43.5191 15.357 43.4837 15.4962L42.6294 18.8721C42.613 18.9408 42.5831 19.0057 42.5414 19.063C42.4997 19.1201 42.447 19.1685 42.3865 19.2054C42.326 19.2424 42.2587 19.267 42.1887 19.2778C42.1187 19.2887 42.0471 19.2857 41.9784 19.2688C41.8875 19.246 41.804 19.2005 41.7355 19.1367C41.6671 19.0728 41.6161 18.9927 41.5873 18.9038Z" fill="#ADACAC"/>
<path d="M42.2643 10.0934L47.0599 0.99644L45.819 0.36377C41.6763 1.13941 37.8889 3.2171 35.0117 6.29246L42.2643 10.0934Z" fill="#898989"/>
<path d="M19.6547 46.679L38.2073 26.6563C38.6487 26.2124 39.2135 25.9107 39.8283 25.7904C42.641 25.2231 52.7075 22.7084 54.3263 22.248C55.945 21.7875 59.4758 19.5333 59.3553 13.6021C59.2348 7.67097 57.5511 6.33073 57.5511 6.33073L56.3018 5.70068L52.2263 13.4412L49.0924 13.6307L37.3245 7.46243L33.9971 19.6594C33.8645 20.3111 33.526 20.9038 33.031 21.3503L12.54 39.248C12.0217 39.7077 11.6014 40.2667 11.3041 40.8914C11.0068 41.5163 10.8387 42.1941 10.8097 42.8845C10.7807 43.575 10.8915 44.264 11.1354 44.9103C11.3794 45.5565 11.7515 46.147 12.2296 46.6463C12.7076 47.1455 13.2818 47.5435 13.918 47.8164C14.5541 48.0893 15.2391 48.2315 15.932 48.2345C16.625 48.2377 17.3118 48.1015 17.9514 47.8343C18.591 47.567 19.1703 47.1741 19.6547 46.679ZM43.4471 20.8967L38.8347 18.5138C38.6088 18.3977 38.4387 18.197 38.3614 17.9555C38.2841 17.7141 38.3063 17.452 38.4227 17.2264L40.4817 13.3356C40.539 13.2254 40.6177 13.1275 40.713 13.0476C40.8084 12.9678 40.9187 12.9075 41.0375 12.8704C41.1564 12.8332 41.2813 12.8198 41.4053 12.8311C41.5291 12.8423 41.6495 12.8779 41.7594 12.9359L46.3803 15.3161C46.4925 15.3735 46.5921 15.4525 46.6734 15.5487C46.7547 15.6448 46.8158 15.7563 46.8534 15.8763C46.891 15.9964 46.9041 16.1228 46.8923 16.2481C46.8803 16.3734 46.8434 16.4951 46.7838 16.6063L44.7333 20.4943C44.6144 20.7163 44.413 20.8828 44.1724 20.9581C43.9317 21.0334 43.6711 21.0114 43.4471 20.8967ZM14.2456 44.7293C13.8991 44.3684 13.6679 43.913 13.5812 43.4205C13.4945 42.9281 13.5563 42.4208 13.7587 41.9628C13.961 41.5048 14.295 41.1167 14.7183 40.8474C15.1414 40.5783 15.635 40.4401 16.1364 40.4504C16.6378 40.4607 17.1245 40.6191 17.5353 40.9054C17.9458 41.1918 18.2618 41.5934 18.4433 42.0593C18.6247 42.5251 18.6633 43.0345 18.5544 43.523C18.4454 44.0113 18.1937 44.4568 17.8311 44.8031C17.5904 45.033 17.3067 45.2135 16.9961 45.3343C16.6857 45.455 16.3545 45.5135 16.0215 45.5067C15.6887 45.4998 15.3604 45.4277 15.0557 45.2943C14.751 45.1608 14.4757 44.9688 14.2456 44.7293Z" fill="#ADACAC"/>
<path d="M33.8654 14.2871C31.7758 11.9506 27.9439 12.8249 25.8566 14.9162C24.3668 16.4258 24.7165 19.2608 24.7165 19.2608C23.0384 19.7509 21.4878 20.6021 20.1731 21.7545C17.9469 23.7426 16.0414 26.0629 14.5239 28.6331C13.7914 29.7865 13.5204 31.1735 13.7651 32.5178C14.0097 33.8619 14.7521 35.0646 15.8441 35.8858C18.3971 37.9468 22.7024 39.5988 25.9566 39.1698C29.7369 38.7179 33.1268 35.1292 35.6352 32.2752C38.7001 28.7326 39.6532 20.7326 33.8654 14.2871Z" fill="#8CD9FF"/>
<path d="M31.3468 30.4966C31.2518 30.4859 31.1582 30.4649 31.0678 30.4339C28.5553 29.1105 26.4948 27.0678 25.1498 24.5668C24.9901 24.2532 24.9616 23.8889 25.0705 23.5542C25.1793 23.2195 25.4166 22.9418 25.7303 22.7821C26.0439 22.6225 26.4082 22.5939 26.7429 22.7028C27.0776 22.8116 27.3553 23.0489 27.5151 23.3626C28.5923 25.3386 30.2163 26.9622 32.1925 28.0392C32.4871 28.1781 32.7201 28.4208 32.8468 28.7208C32.9736 29.0208 32.9853 29.3569 32.8798 29.6651C32.7742 29.9731 32.5588 30.2315 32.2746 30.3906C31.9905 30.5498 31.6576 30.5985 31.3398 30.5276L31.3468 30.4966Z" fill="#3F99F2"/>
<path d="M45.4543 29.9163C45.6736 25.9506 44.4085 22.747 39.7032 19.4966C35.4208 16.5366 32.2408 20.6393 30.4852 25.887C28.9506 30.49 29.4218 34.3288 32.8756 35.2794L43.7489 37.0634C44.519 34.7337 45.0896 32.3427 45.4543 29.9163Z" fill="#66BCFF"/>
<path d="M41.3034 29.2641C41.1466 29.1887 40.9763 29.1448 40.8024 29.1352C40.6287 29.1258 40.4547 29.1507 40.2904 29.2084C40.1263 29.2662 39.975 29.356 39.8456 29.4722C39.716 29.5885 39.6107 29.7294 39.5357 29.8864C38.3581 32.3235 37.0623 34.7557 35.2683 35.3504C34.4481 35.5578 33.5849 35.5147 32.7894 35.227C32.059 35.9327 31.2779 36.584 30.4521 37.1752C31.1579 37.5172 31.8999 37.7788 32.664 37.955C33.7874 38.2395 34.968 38.2045 36.0724 37.8535C38.8583 36.9502 40.4193 34.1111 41.9441 31.0467C42.0199 30.8877 42.0634 30.7154 42.0722 30.5394C42.0809 30.3635 42.0547 30.1877 41.9952 30.022C41.9356 29.8562 41.8439 29.7038 41.7251 29.5738C41.6064 29.4437 41.4631 29.3385 41.3034 29.2641Z" fill="#3F99F2"/>
</g>
</g>
<defs>
<clipPath id="clip0_1702_40">
<rect width="60" height="60" fill="white" transform="translate(0 0.0214844)"/>
</clipPath>
</defs>
</svg>
