<svg xmlns="http://www.w3.org/2000/svg" width="60" height="60" viewBox="0 0 60 60" fill="none">
<path d="M28.4624 8.15491C27.5274 7.77121 26.4524 7.98299 25.7374 8.69559L15.0049 20.4211H7.50488C6.12988 20.4211 5.00488 21.5448 5.00488 22.9127V37.8623C5.00488 39.2327 6.12988 40.3539 7.50488 40.3539H15.0049L25.7374 52.0844C26.4524 52.797 27.5274 53.0113 28.4624 52.6251C29.3974 52.2389 30.0049 51.3294 30.0049 50.3203V10.4547C30.0049 9.45055 29.3974 8.53613 28.4624 8.15491ZM35.0049 12.9461V17.9293C41.8974 17.9293 47.5049 23.5205 47.5049 30.3875C47.5049 37.2568 41.8974 42.8455 35.0049 42.8455V47.8287C44.6549 47.8287 52.5049 40.0076 52.5049 30.3875C52.5049 20.7722 44.6549 12.9461 35.0049 12.9461ZM35.0049 22.9125C39.1399 22.9125 42.5049 26.2688 42.5049 30.3875C42.5049 34.5111 39.1399 37.8623 35.0049 37.8623V32.8791C36.3824 32.8791 37.5049 31.7603 37.5049 30.3875C37.5049 29.0146 36.3824 27.8958 35.0049 27.8958V22.9125Z" fill="#434040"/>
</svg>