<svg width="60" height="60" viewBox="0 0 60 60" fill="none" xmlns="http://www.w3.org/2000/svg">
<path d="M7.47418 23.3947C7.47418 24.4396 6.58608 25.3101 5.52019 25.3101H4.4543C3.3884 25.3101 2.49988 24.4396 2.49988 23.3947C2.49988 22.3499 3.3884 21.4793 4.4543 21.4793H5.52019C6.58608 21.4793 7.47418 22.3499 7.47418 23.3947ZM55.6169 22.8723C60.2356 32.4501 55.9721 43.9433 45.8461 48.4707C36.0757 52.8243 24.3509 48.645 19.9096 39.0672C19.0215 37.1518 18.4885 35.0622 18.3107 32.9725H14.4023C13.3364 32.9725 12.4483 32.1015 12.4483 31.0567C12.4483 30.0119 13.3364 29.1413 14.4023 29.1413H20.0873C21.1532 29.1413 22.0413 28.2708 22.0413 27.2259C22.0413 26.1811 21.1532 25.3101 20.0873 25.3101H11.0273C9.96137 25.3101 9.07285 24.4396 9.07285 23.3947C9.07285 22.3499 9.96137 21.4793 11.0273 21.4793H23.6402C24.7061 21.4793 25.5942 20.6084 25.5942 19.5635C25.5942 18.5187 24.7061 17.6482 23.6402 17.6482H18.4885C16.8897 17.6482 15.4682 16.429 15.4682 14.6879C15.4682 13.1207 16.7119 11.7273 18.4885 11.7273H38.5627C45.6687 12.0759 52.4192 16.0809 55.6169 22.8723ZM33.1657 20.9514C27.5485 23.4799 25.0854 29.9934 27.6649 35.4997C30.2444 41.0059 36.8891 43.4203 42.5064 40.8918C48.124 38.3633 50.5867 31.8499 48.0072 26.3436C45.4278 20.8373 38.783 18.4229 33.1657 20.9514ZM42.1157 24.6137L45.6685 30.5346C45.8463 30.8827 45.8463 31.057 45.6685 31.4051L42.1157 37.326C41.9379 37.6741 41.5827 37.6741 41.4049 37.6741H34.4766C34.1215 37.6741 33.9437 37.4999 33.7663 37.326L30.2131 31.4051C30.0357 31.057 30.0357 30.8827 30.2131 30.5346L33.7663 24.6137C33.9437 24.2656 34.2993 24.2656 34.4766 24.2656H41.4049C41.7605 24.0913 41.9379 24.2656 42.1157 24.6137Z" fill="#5865F2"/>
</svg>
