<svg xmlns="http://www.w3.org/2000/svg" width="60" height="60" viewBox="0 0 60 60" fill="none">
<path fill-rule="evenodd" clip-rule="evenodd" d="M34.9998 20.4984C34.9998 26.0109 30.5148 30.4984 24.9998 30.4984C19.4873 30.4984 14.9998 26.0109 14.9998 20.4984C14.9998 14.9859 19.4848 10.4984 24.9998 10.4984C30.5148 10.4984 34.9998 14.9859 34.9998 20.4984ZM4.99976 47.9984C4.99976 39.1659 13.2248 32.9984 24.9998 32.9984C36.7773 32.9984 44.9998 39.1659 44.9998 47.9984V50.4984H4.99976V47.9984Z" fill="#4E4949"/>
<path d="M50 50.4982H55V47.9982C55 41.5914 50.674 36.5869 43.803 34.3212C47.655 37.7649 50 42.4979 50 47.9982V50.4982Z" fill="#4E4949"/>
<path d="M37.2082 30.2521C41.664 29.2439 45 25.2521 45 20.4978C45 15.4058 41.173 11.1883 36.2425 10.5746C38.5802 13.2207 40 16.696 40 20.4978C40 24.1051 38.722 27.4184 36.5942 30.0084C36.8005 30.0874 37.0052 30.1686 37.2082 30.2521Z" fill="#4E4949"/>
</svg>