<svg width="60" height="60" viewBox="0 0 60 60" fill="none" xmlns="http://www.w3.org/2000/svg">
<path d="M27.5061 13.1105V8.05945C41.2936 8.05945 52.5061 19.3889 52.5061 33.3146H47.5061C47.5061 22.1745 38.5336 13.1105 27.5061 13.1105ZM42.5061 33.3146H37.5061C37.5061 27.7458 33.0211 23.2125 27.5061 23.2125V18.1615C35.7786 18.1615 42.5061 24.9576 42.5061 33.3146ZM27.5061 28.2635V33.3146H32.5061C32.5061 30.5264 30.2686 28.2635 27.5061 28.2635ZM35.0061 40.8911H45.0061C46.3886 40.8911 47.5061 42.02 47.5061 43.4166V53.5186C47.5061 54.9152 46.3886 56.0441 45.0061 56.0441H32.5061C17.3186 56.0441 5.0061 43.606 5.0061 28.2635V15.636C5.0061 14.2394 6.1261 13.1105 7.5061 13.1105H17.5061C18.8886 13.1105 20.0061 14.2394 20.0061 15.636V25.738C20.0061 27.1346 18.8886 28.2635 17.5061 28.2635H15.0061C15.1636 38.209 22.5061 45.9421 32.5061 45.9421V43.4166C32.5061 42.02 33.6236 40.8911 35.0061 40.8911Z" fill="#595353"/>
</svg>
