<svg width="60" height="60" viewBox="0 0 60 60" fill="none" xmlns="http://www.w3.org/2000/svg">
<path d="M30 5C16.1925 5 5 16.1925 5 30C5 43.805 16.1925 55 30 55C43.8075 55 55 43.805 55 30C55 16.1925 43.8075 5 30 5ZM20 15C22.76 15 25 17.24 25 20C25 22.7625 22.76 25 20 25C17.24 25 15 22.7625 15 20C15 17.24 17.24 15 20 15ZM45 35C45 41.5425 37.85 47.5 30 47.5C22.15 47.5 15 41.5425 15 35V32.5H45V35ZM40 25C37.24 25 35 22.7625 35 20C35 17.24 37.24 15 40 15C42.76 15 45 17.24 45 20C45 22.7625 42.76 25 40 25Z" fill="#4C4747"/>
</svg>
